<?xml version="1.0" encoding="iso-8859-1"?>
<!-- Generator: Adobe Illustrator 19.0.0, SVG Export Plug-In . SVG Version: 6.00 Build 0)  -->
<svg version="1.1" id="Capa_1" xmlns="http://www.w3.org/2000/svg" xmlns:xlink="http://www.w3.org/1999/xlink" x="0px" y="0px"
	 viewBox="0 0 469.334 469.334" style="enable-background:new 0 0 469.334 469.334;" xml:space="preserve">
<path style="fill:#B39DDD;" d="M106.664,0H362.66c23.564,0,42.667,19.103,42.667,42.667v383.996
	c0,23.564-19.103,42.667-42.667,42.667H106.664c-23.564,0-42.667-19.103-42.667-42.667V42.667C63.997,19.103,83.1,0,106.664,0z"/>
<path style="fill:#997BD2;" d="M128,426.667h213.334c11.782,0,21.333,9.551,21.333,21.333v0.001
	c0,11.782-9.551,21.333-21.333,21.333H128c-11.782,0-21.333-9.551-21.333-21.333V448C106.667,436.218,116.218,426.667,128,426.667z"
	/>
<path style="fill:#D3C8EB;" d="M106.664,0H362.66c23.564,0,42.667,19.103,42.667,42.667v298.666
	c0,23.564-19.103,42.667-42.667,42.667H106.664c-23.564,0-42.667-19.103-42.667-42.667V42.667C63.997,19.103,83.1,0,106.664,0z"/>
<circle style="fill:#E7455F;" cx="117.337" cy="437.337" r="10.667"/>
<path style="fill:#C7B9E6;" d="M394.667,298.667c-5.891,0-10.667,4.775-10.667,10.666c0,0,0,0,0,0.001v32
	c0,11.782-9.551,21.333-21.333,21.333h-256c-11.782,0-21.333-9.551-21.333-21.333V74.667C85.334,68.776,80.558,64,74.667,64
	S64,68.776,64,74.667v266.667c0,23.564,19.103,42.666,42.667,42.667h256c23.564,0,42.666-19.103,42.667-42.667v-32
	C405.334,303.443,400.558,298.667,394.667,298.667C394.667,298.667,394.667,298.667,394.667,298.667L394.667,298.667z"/>
<circle style="fill:#5628B4;" cx="159.997" cy="437.337" r="10.667"/>
<circle style="fill:#BCABE0;" cx="234.667" cy="191.997" r="170.67"/>
<circle style="fill:#EBE7F6;" cx="234.667" cy="191.997" r="149.33"/>
<path style="fill:#DED8F0;" d="M234.667,42.667c-82.475,0.012-149.324,66.88-149.313,149.354
	c0.012,82.458,66.854,149.301,149.313,149.313h0.197c0.038,0,0.077,0,0.115,0h0.04l0.147-0.001h0.04l0.112,0l0.049,0l0.148-0.001
	l0.017,0c0.046,0,0.091,0,0.137-0.001l0.042,0l0.123-0.001h0.032c0.049-0.001,0.098-0.001,0.147-0.001l0.044,0
	c0.038-0.001,0.077-0.001,0.116-0.001l0.04,0l0.151-0.002l0.018,0c0.046,0,0.092-0.001,0.137-0.002l0.036,0l0.137-0.002l0.02,0
	c0.051-0.001,0.101-0.001,0.152-0.002l0.038,0l0.12-0.002l0.038-0.001l0.15-0.002l0.029-0.001l0.124-0.002l0.044-0.001
	c0.048-0.001,0.096-0.002,0.145-0.003h0.006l0.152-0.003l0.039-0.001c0.042-0.001,0.083-0.002,0.124-0.003l0.033-0.001
	c0.051-0.001,0.1-0.002,0.151-0.003l0.031-0.001l0.124-0.003l0.038-0.001l0.307-0.008l0.035-0.001l0.129-0.004l0.029-0.001
	c0.051-0.001,0.102-0.003,0.152-0.004l0.029-0.001c0.042-0.001,0.085-0.003,0.127-0.004l0.036-0.001
	c0.051-0.001,0.103-0.003,0.154-0.005h0.005l0.146-0.005l0.039-0.001c0.044-0.001,0.088-0.003,0.132-0.004l0.022-0.001l0.15-0.005
	l0.04-0.001c0.04-0.001,0.08-0.003,0.12-0.004l0.036-0.001l0.15-0.006l0.025-0.001l0.13-0.005l0.038-0.001l0.146-0.006h0.006
	l0.154-0.006l0.034-0.001l0.125-0.005l0.034-0.001c0.051-0.002,0.102-0.004,0.152-0.006l0.019-0.001
	c0.044-0.002,0.089-0.004,0.133-0.006l0.038-0.002c0.102-0.004,0.203-0.009,0.305-0.013l0.036-0.002
	c0.043-0.002,0.086-0.004,0.129-0.006l0.026-0.001l0.152-0.007l0.029-0.001c0.043-0.002,0.086-0.004,0.129-0.006l0.033-0.002
	c0.102-0.005,0.204-0.01,0.307-0.015l0.035-0.002l0.13-0.007l0.027-0.001l0.15-0.008l0.033-0.002c0.04-0.002,0.08-0.004,0.12-0.007
	l0.042-0.002c0.049-0.003,0.098-0.006,0.148-0.008l0.019-0.001l0.133-0.007l0.04-0.002c0.044-0.002,0.089-0.005,0.133-0.007
	l0.018-0.001l0.148-0.008l0.044-0.003l0.113-0.007l0.042-0.003l0.146-0.009l0.031-0.002c0.039-0.003,0.079-0.005,0.118-0.007
	l0.05-0.003c0.038-0.002,0.076-0.005,0.114-0.007l0.037-0.002l0.141-0.009l0.049-0.003c0.034-0.002,0.068-0.004,0.102-0.007
	l0.051-0.003c0.046-0.003,0.092-0.006,0.138-0.009l0.051-0.003l0.096-0.007l0.062-0.004l0.1-0.007l0.076-0.005
	c0.034-0.002,0.068-0.005,0.103-0.007l0.066-0.005l0.083-0.006l0.066-0.005l0.126-0.009l0.072-0.005l0.074-0.005l0.073-0.005
	l0.082-0.006l0.111-0.008l0.078-0.006l0.074-0.006l0.074-0.006l0.071-0.005l0.124-0.01l0.076-0.006l0.068-0.005l0.08-0.006
	l0.062-0.005l0.142-0.011l0.055-0.004l0.089-0.007l0.048-0.004l0.173-0.014l0.035-0.003l0.091-0.008l0.046-0.004l0.094-0.008
	l0.007,0c0.074-0.006,0.136-0.012,0.21-0.018l0.031-0.003l0.103-0.009l0.02-0.002c0.108-0.009,0.223-0.02,0.331-0.029l0.02-0.002
	l0.342-0.031l0.003,0c2.591-0.236,5.161-0.538,7.71-0.905c5.829-0.856,9.86-6.275,9.004-12.103
	c-0.855-5.821-6.261-9.851-12.084-9.007c-6.084,0.869-12.222,1.305-18.367,1.305c-70.692,0-128-57.308-128-128s57.308-128,128-128
	c5.891,0.006,10.672-4.765,10.678-10.656c0.006-5.891-4.764-10.672-10.656-10.678C234.682,42.667,234.675,42.667,234.667,42.667
	L234.667,42.667z M371.925,161.389c-0.513,0-1.025,0.037-1.533,0.11c-5.831,0.839-9.878,6.246-9.038,12.077c0,0,0,0,0,0
	c0.875,6.102,1.313,12.259,1.313,18.424c-0.091,50.047-29.247,95.483-74.706,116.418c-5.355,2.456-7.705,8.788-5.249,14.142
	s8.788,7.705,14.142,5.249l0,0c6.651-3.051,13.068-6.587,19.199-10.581l0.003-0.001c0.092-0.06,0.182-0.118,0.273-0.179l0.001-0.001
	c0.412-0.27,0.819-0.539,1.229-0.813l0.007-0.004c0.091-0.061,0.178-0.119,0.268-0.18l0.004-0.003
	c0.091-0.061,0.179-0.12,0.27-0.182l0.002-0.001c0.091-0.061,0.18-0.122,0.271-0.183l0.001-0.001
	c0.091-0.062,0.178-0.121,0.268-0.183l0.007-0.005c0.133-0.09,0.266-0.181,0.398-0.272l0.006-0.004
	c0.087-0.06,0.173-0.118,0.26-0.179l0.014-0.01c0.085-0.058,0.171-0.118,0.256-0.176l0.016-0.011
	c0.084-0.058,0.169-0.117,0.253-0.176l0.02-0.014l0.25-0.174l0.02-0.014l0.116-0.081l0.009-0.007c0.042-0.029,0.086-0.06,0.128-0.09
	l0.012-0.009c0.04-0.027,0.077-0.054,0.117-0.082l0.014-0.01c0.042-0.029,0.084-0.059,0.126-0.089l0.013-0.009
	c0.036-0.026,0.075-0.053,0.111-0.078l0.023-0.016c0.042-0.03,0.082-0.058,0.124-0.088l0.003-0.002
	c0.042-0.03,0.079-0.056,0.122-0.086l0.018-0.013c0.083-0.059,0.164-0.117,0.247-0.176l0.024-0.017
	c0.083-0.06,0.161-0.115,0.245-0.175l0.022-0.016l0.119-0.086l0.003-0.002c0.041-0.03,0.081-0.058,0.122-0.088l0.025-0.018
	c0.036-0.026,0.071-0.051,0.107-0.077l0.015-0.011c0.041-0.03,0.079-0.057,0.12-0.087l0.024-0.017l0.103-0.075l0.022-0.016
	c0.039-0.028,0.08-0.058,0.118-0.086l0.022-0.016l0.105-0.077l0.02-0.014c0.042-0.03,0.081-0.059,0.122-0.089l0.015-0.01
	l0.105-0.077l0.028-0.021c0.039-0.028,0.079-0.058,0.118-0.087l0.009-0.007l0.109-0.08l0.029-0.021
	c0.038-0.028,0.078-0.058,0.117-0.086l0.002-0.002c0.041-0.031,0.078-0.058,0.119-0.088l0.027-0.02l0.104-0.077l0.016-0.012
	l0.116-0.086l0.029-0.021c0.033-0.024,0.062-0.046,0.095-0.071l0.028-0.021c0.038-0.028,0.074-0.055,0.112-0.084l0.031-0.023
	c0.031-0.022,0.059-0.044,0.089-0.066l0.032-0.024l0.112-0.084l0.031-0.023c0.027-0.02,0.06-0.045,0.087-0.065l0.037-0.028
	c0.036-0.027,0.074-0.056,0.11-0.083l0.029-0.021l0.085-0.064l0.042-0.031l0.108-0.082l0.023-0.018l0.092-0.07l0.04-0.031
	l0.089-0.068l0.042-0.032l0.087-0.067c0.015-0.011,0.032-0.024,0.046-0.035l0.08-0.061l0.034-0.026
	c0.036-0.027,0.07-0.053,0.105-0.08l0.044-0.033c0.027-0.021,0.053-0.041,0.08-0.062l0.033-0.025
	c0.036-0.027,0.07-0.054,0.105-0.081l0.046-0.035c0.024-0.019,0.048-0.037,0.073-0.056l0.041-0.032
	c0.035-0.027,0.07-0.054,0.105-0.081l0.039-0.03c0.027-0.021,0.048-0.036,0.074-0.058l0.044-0.034
	c0.035-0.027,0.066-0.051,0.101-0.078l0.044-0.034c0.025-0.019,0.049-0.038,0.073-0.057l0.044-0.034
	c0.035-0.027,0.07-0.054,0.104-0.081l0.031-0.023c0.027-0.021,0.055-0.043,0.082-0.064l0.043-0.034
	c0.029-0.023,0.055-0.043,0.085-0.066l0.047-0.037l0.086-0.067l0.042-0.033l0.085-0.066l0.028-0.022
	c0.035-0.027,0.07-0.056,0.105-0.083l0.042-0.033l0.074-0.058l0.042-0.033c0.035-0.028,0.066-0.053,0.102-0.08l0.044-0.034
	c0.024-0.019,0.046-0.037,0.07-0.056l0.044-0.035c0.033-0.025,0.068-0.054,0.1-0.08l0.045-0.035l0.068-0.054l0.048-0.038
	l0.099-0.079l0.044-0.035l0.067-0.054l0.049-0.039l0.085-0.068l0.057-0.045l0.067-0.054l0.051-0.041l0.076-0.062l0.053-0.042
	l0.078-0.063l0.05-0.041l0.067-0.054l0.059-0.048l0.08-0.065l0.053-0.043l0.061-0.049l0.049-0.039l0.096-0.078l0.048-0.039
	l0.066-0.054l0.046-0.037l0.096-0.078l0.052-0.043l0.06-0.049c0.015-0.012,0.033-0.027,0.048-0.039l0.098-0.08
	c0.014-0.012,0.03-0.025,0.045-0.037c0.023-0.02,0.043-0.036,0.067-0.055l0.046-0.038c0.032-0.026,0.064-0.052,0.095-0.078
	l0.041-0.034c0.023-0.02,0.049-0.041,0.074-0.061l0.046-0.038l0.072-0.06c0.021-0.018,0.044-0.037,0.066-0.055l0.068-0.057
	l0.051-0.043l0.058-0.048l0.077-0.064l0.067-0.056l0.051-0.043l0.059-0.049l0.064-0.054c0.026-0.022,0.053-0.044,0.079-0.066
	l0.054-0.046l0.053-0.044l0.055-0.046c0.032-0.026,0.059-0.049,0.091-0.076l0.057-0.048l0.051-0.044l0.055-0.047l0.092-0.078
	l0.053-0.044l0.05-0.042l0.06-0.051l0.049-0.041c0.032-0.027,0.063-0.054,0.096-0.081l0.049-0.042
	c0.021-0.018,0.038-0.032,0.059-0.05l0.046-0.039l0.102-0.087l0.042-0.036c0.021-0.018,0.041-0.035,0.062-0.053
	c0.016-0.013,0.031-0.026,0.046-0.039c0.036-0.031,0.068-0.058,0.104-0.089l0.042-0.035l0.063-0.055l0.04-0.035
	c0.042-0.037,0.079-0.069,0.122-0.105l0.023-0.021l0.066-0.057l0.04-0.035l0.092-0.08c0.021-0.018,0.036-0.031,0.057-0.049
	c0.021-0.018,0.04-0.034,0.061-0.053l0.042-0.036l0.062-0.053l0.039-0.034c0.038-0.034,0.071-0.062,0.11-0.096l0.039-0.034
	l0.065-0.057l0.03-0.026c0.039-0.034,0.078-0.068,0.117-0.102l0.038-0.033l0.063-0.056l0.038-0.033
	c0.035-0.031,0.077-0.069,0.113-0.099l0.036-0.032l0.064-0.057l0.035-0.031c0.039-0.034,0.07-0.061,0.108-0.095l0.042-0.037
	l0.061-0.054l0.041-0.036c0.035-0.031,0.071-0.063,0.106-0.094l0.042-0.037l0.06-0.053l0.04-0.036
	c0.07-0.062,0.141-0.125,0.21-0.187l0.036-0.032c0.07-0.062,0.143-0.128,0.213-0.19l0.035-0.032l0.063-0.056l0.045-0.04
	c0.031-0.028,0.069-0.062,0.1-0.09l0.04-0.036l0.063-0.057l0.041-0.037l0.099-0.089l0.044-0.04l0.06-0.054l0.046-0.041
	c0.031-0.028,0.062-0.056,0.093-0.085l0.049-0.045c0.021-0.019,0.039-0.035,0.059-0.054l0.041-0.037
	c0.038-0.034,0.078-0.071,0.116-0.105l0.025-0.023l0.064-0.059l0.038-0.035c0.069-0.063,0.142-0.13,0.21-0.193l0.033-0.03
	l0.064-0.059l0.027-0.024c0.041-0.038,0.079-0.073,0.12-0.111c0.013-0.011,0.021-0.019,0.033-0.031l0.067-0.061l0.016-0.015
	c0.048-0.044,0.089-0.082,0.136-0.126l0.022-0.021c0.021-0.019,0.049-0.045,0.069-0.064l0.027-0.025
	c0.038-0.035,0.078-0.073,0.115-0.107l0.037-0.034l0.063-0.059l0.031-0.029c0.041-0.038,0.086-0.08,0.126-0.118l0.019-0.017
	c0.023-0.022,0.044-0.041,0.067-0.063l0.031-0.029c0.044-0.042,0.09-0.084,0.134-0.125l0.011-0.011l0.068-0.063l0.028-0.027
	c0.068-0.064,0.145-0.137,0.213-0.201l0.03-0.028c0.072-0.067,0.14-0.132,0.211-0.2l0.031-0.03l0.066-0.063l0.022-0.021
	c0.04-0.039,0.078-0.075,0.119-0.113l0.036-0.034l0.063-0.061l0.029-0.027l0.122-0.117l0.023-0.022l0.068-0.065l0.027-0.027
	c0.04-0.039,0.081-0.077,0.122-0.116l0.025-0.024c0.024-0.023,0.042-0.04,0.065-0.063l0.031-0.029
	c0.047-0.046,0.09-0.087,0.137-0.132l0.005-0.005l0.068-0.065l0.029-0.027c0.07-0.068,0.141-0.137,0.211-0.204l0.027-0.027
	c0.07-0.068,0.139-0.135,0.209-0.204l0.032-0.031l0.064-0.063l0.021-0.021c0.04-0.039,0.084-0.082,0.124-0.121l0.027-0.027
	c0.02-0.02,0.046-0.045,0.066-0.064l0.023-0.023c0.04-0.039,0.083-0.081,0.122-0.12l0.027-0.026c0.02-0.02,0.045-0.044,0.065-0.064
	l0.026-0.026c0.044-0.043,0.084-0.082,0.127-0.125l0.016-0.017c0.023-0.023,0.045-0.045,0.068-0.067l0.023-0.022
	c0.046-0.046,0.089-0.088,0.135-0.134l0.01-0.011c0.023-0.023,0.042-0.041,0.064-0.064l0.031-0.031
	c0.066-0.066,0.135-0.135,0.202-0.201l0.036-0.036c0.066-0.066,0.135-0.136,0.202-0.202l0.031-0.031l0.064-0.064l0.019-0.019
	c0.039-0.04,0.085-0.086,0.125-0.126l0.025-0.025l0.067-0.068l0.02-0.019l0.12-0.121l0.029-0.029l0.063-0.064l0.03-0.031
	c0.04-0.04,0.078-0.079,0.118-0.119l0.021-0.022c0.023-0.023,0.044-0.044,0.066-0.067l0.024-0.024
	c0.042-0.043,0.092-0.095,0.135-0.138l0.007-0.007l0.065-0.066l0.029-0.03l0.208-0.214l0.019-0.02
	c0.072-0.074,0.141-0.145,0.212-0.219l0.021-0.021c0.072-0.074,0.139-0.144,0.211-0.218l0.021-0.022
	c0.023-0.024,0.044-0.046,0.066-0.069l0.019-0.019c0.042-0.044,0.082-0.085,0.124-0.129l0.023-0.024l0.066-0.069l0.018-0.019
	c0.045-0.047,0.083-0.087,0.128-0.134l0.016-0.018l0.064-0.066l0.029-0.031c0.046-0.047,0.087-0.09,0.132-0.138l0.005-0.005
	l0.067-0.071l0.022-0.023c0.07-0.075,0.138-0.146,0.208-0.22l0.02-0.021l0.212-0.225l0.013-0.014c0.07-0.075,0.145-0.155,0.216-0.23
	l0.014-0.015c0.07-0.075,0.148-0.158,0.217-0.233l0.01-0.01l0.069-0.074l0.018-0.019c0.048-0.051,0.089-0.096,0.137-0.147
	l0.003-0.004l0.072-0.078l0.01-0.01c0.07-0.076,0.146-0.158,0.216-0.233l0.014-0.016c0.07-0.076,0.141-0.153,0.21-0.229l0.017-0.019
	l0.208-0.227l0.018-0.021c0.07-0.076,0.139-0.152,0.208-0.228l0.016-0.018l0.067-0.074l0.013-0.014
	c0.044-0.048,0.089-0.098,0.133-0.146l0.01-0.012c0.025-0.028,0.046-0.05,0.07-0.077l0.007-0.008
	c0.048-0.052,0.095-0.104,0.142-0.156l0.004-0.005c0.021-0.024,0.047-0.052,0.068-0.076l0.016-0.017
	c0.068-0.076,0.14-0.156,0.209-0.232l0.013-0.015c0.069-0.077,0.143-0.159,0.211-0.235l0.012-0.013
	c0.068-0.076,0.143-0.16,0.211-0.237l0.012-0.012c0.068-0.077,0.143-0.161,0.211-0.238l0.01-0.012
	c0.099-0.112,0.194-0.219,0.292-0.332l0.002-0.002c0.148-0.168,0.29-0.332,0.438-0.501l0.008-0.009
	c0.071-0.081,0.142-0.162,0.212-0.243l0.009-0.01c0.067-0.078,0.139-0.161,0.206-0.239l0.016-0.018
	c0.07-0.081,0.138-0.161,0.208-0.242l0.007-0.007c0.07-0.081,0.139-0.162,0.209-0.243l0.01-0.012l0.07-0.081v0l0.215-0.251
	l0.01-0.012c0.07-0.082,0.137-0.162,0.207-0.244l0.008-0.01c0.066-0.078,0.141-0.166,0.206-0.245l0.01-0.012
	c0.066-0.079,0.141-0.167,0.206-0.245l0.008-0.01l0.202-0.241l0.016-0.02c0.021-0.025,0.044-0.053,0.066-0.078l0.003-0.003
	c0.045-0.054,0.09-0.108,0.135-0.162l0.008-0.009c0.024-0.029,0.044-0.052,0.067-0.081l0.009-0.01
	c0.042-0.05,0.089-0.107,0.131-0.158l0.007-0.009l0.064-0.077l0.018-0.022c0.066-0.079,0.13-0.157,0.195-0.236l0.017-0.02
	c0.068-0.083,0.131-0.16,0.199-0.243l0.008-0.01c0.065-0.08,0.137-0.168,0.202-0.247l0.011-0.014
	c0.065-0.08,0.136-0.167,0.201-0.247l0.01-0.012c0.067-0.084,0.135-0.167,0.202-0.25l0.008-0.009l0.066-0.082l0.009-0.012
	c0.041-0.051,0.085-0.106,0.126-0.157l0.009-0.011c0.023-0.029,0.04-0.05,0.064-0.08l0.012-0.015
	c0.064-0.08,0.133-0.166,0.197-0.246l0.013-0.016c0.064-0.08,0.13-0.163,0.194-0.243l0.016-0.02
	c0.064-0.081,0.131-0.165,0.195-0.245l0.012-0.015c0.064-0.08,0.135-0.17,0.199-0.251l0.008-0.01
	c0.066-0.084,0.132-0.167,0.198-0.252l0.01-0.012c0.023-0.029,0.042-0.053,0.065-0.083l0.006-0.007
	c0.043-0.055,0.089-0.115,0.133-0.17l0.001-0.002l0.067-0.086l0.005-0.006c0.066-0.085,0.133-0.171,0.199-0.256l0.01-0.014
	c0.066-0.085,0.133-0.171,0.199-0.256l0.003-0.004c0.068-0.089,0.133-0.172,0.201-0.261l0.005-0.007
	c0.068-0.089,0.132-0.173,0.201-0.261l0.003-0.004c0.159-0.208,0.315-0.413,0.473-0.622l0.003-0.004
	c0.068-0.09,0.132-0.173,0.199-0.263l0.006-0.008c0.065-0.086,0.128-0.17,0.193-0.256l0.013-0.017
	c0.062-0.082,0.128-0.171,0.189-0.253l0.01-0.013c0.064-0.086,0.125-0.168,0.189-0.255l0.012-0.016
	c0.064-0.086,0.128-0.173,0.192-0.259l0.005-0.007l0.063-0.085l0.01-0.014l0.122-0.166l0.004-0.006
	c0.023-0.03,0.042-0.056,0.064-0.087l0.007-0.008c0.064-0.087,0.128-0.174,0.191-0.261l0.008-0.011l0.186-0.255l0.015-0.021
	c0.061-0.083,0.122-0.167,0.182-0.251l0.014-0.02c0.061-0.083,0.123-0.17,0.183-0.253l0.012-0.017
	c0.019-0.026,0.042-0.058,0.061-0.084l0.001-0.002c0.041-0.057,0.081-0.112,0.122-0.169l0.012-0.016
	c0.021-0.031,0.038-0.053,0.06-0.084l0.007-0.01c0.041-0.057,0.082-0.114,0.122-0.171l0.003-0.005
	c0.022-0.03,0.039-0.055,0.061-0.085l0.011-0.016c0.041-0.057,0.079-0.11,0.119-0.167l0.004-0.006
	c0.02-0.027,0.041-0.057,0.06-0.084l0.012-0.017l0.182-0.258l0.01-0.013c0.059-0.084,0.125-0.177,0.184-0.261l0.009-0.014
	c0.059-0.084,0.124-0.176,0.183-0.26l0.01-0.014c0.062-0.088,0.122-0.175,0.184-0.263l0.008-0.012
	c0.021-0.031,0.038-0.056,0.06-0.086l0.007-0.009c0.037-0.054,0.081-0.117,0.118-0.17l0.006-0.009l0.061-0.088l0.005-0.008
	l0.182-0.264l0.014-0.021c0.059-0.085,0.117-0.171,0.176-0.256l0.014-0.022c0.059-0.085,0.117-0.17,0.174-0.255l0.014-0.02
	c0.059-0.085,0.12-0.175,0.178-0.26l0.01-0.014c0.021-0.031,0.038-0.056,0.059-0.087l0.001-0.001
	c0.036-0.054,0.074-0.109,0.111-0.163l0.021-0.032l0.053-0.078l0.012-0.019l0.109-0.162l0.01-0.014l0.056-0.083l0.014-0.021
	l0.113-0.168l0.004-0.006l0.056-0.083l0.015-0.023c0.057-0.086,0.112-0.168,0.169-0.254l0.018-0.028
	c0.057-0.086,0.112-0.168,0.169-0.254l0.014-0.022c0.057-0.086,0.112-0.169,0.169-0.255l0.018-0.027
	c0.059-0.09,0.117-0.179,0.176-0.269l0.003-0.004c0.021-0.032,0.04-0.062,0.061-0.093l0.001-0.001
	c0.062-0.094,0.121-0.185,0.182-0.279l0.006-0.009c0.059-0.09,0.117-0.181,0.176-0.271l0.01-0.015
	c0.056-0.087,0.116-0.179,0.171-0.266l0.012-0.018c0.055-0.087,0.11-0.172,0.166-0.259l0.019-0.029
	c0.055-0.087,0.107-0.167,0.162-0.254l0.018-0.027l0.052-0.082l0.008-0.012l0.105-0.166l0.013-0.02l0.053-0.085l0.01-0.017
	c0.035-0.056,0.071-0.112,0.106-0.167l0.008-0.013c0.02-0.032,0.035-0.056,0.055-0.087l0.01-0.015
	c0.055-0.087,0.113-0.18,0.169-0.268l0.013-0.021c0.055-0.087,0.107-0.171,0.161-0.258l0.02-0.031
	c0.055-0.087,0.103-0.164,0.157-0.252l0.021-0.033c0.054-0.088,0.103-0.167,0.158-0.254l0.018-0.029
	c0.017-0.028,0.034-0.055,0.051-0.083l0.006-0.01l0.103-0.167l0.014-0.024c0.017-0.028,0.035-0.057,0.052-0.085l0.011-0.019
	c0.032-0.052,0.065-0.105,0.096-0.157l0.017-0.027c0.014-0.024,0.036-0.059,0.05-0.083l0.016-0.025
	c0.029-0.048,0.065-0.106,0.094-0.155l0.014-0.023c0.017-0.028,0.03-0.049,0.048-0.077l0.024-0.04
	c0.051-0.084,0.102-0.168,0.153-0.252l0.016-0.027c0.053-0.089,0.102-0.168,0.154-0.257l0.02-0.034
	c0.051-0.085,0.102-0.169,0.152-0.253l0.02-0.034l0.047-0.079l0.018-0.029c0.029-0.048,0.057-0.096,0.086-0.144l0.021-0.037
	l0.048-0.08l0.014-0.022c0.031-0.052,0.06-0.101,0.091-0.154l0.018-0.031l0.045-0.076l0.024-0.041
	c0.029-0.048,0.055-0.092,0.083-0.14l0.018-0.031c0.017-0.028,0.03-0.05,0.046-0.079l0.02-0.034c0.033-0.057,0.066-0.113,0.1-0.17
	l0.003-0.004c0.016-0.028,0.031-0.053,0.048-0.081l0.02-0.034c0.05-0.085,0.101-0.172,0.15-0.257l0.018-0.03l0.148-0.256
	l0.022-0.039c0.017-0.028,0.03-0.051,0.046-0.079l0.01-0.018l0.09-0.156l0.02-0.035l0.045-0.077l0.022-0.038l0.08-0.14l0.02-0.034
	l0.046-0.08l0.018-0.032c0.03-0.053,0.064-0.112,0.094-0.165l0.006-0.01l0.049-0.086l0.017-0.03c0.03-0.053,0.063-0.11,0.092-0.163
	l0.009-0.015l0.047-0.083l0.017-0.03c0.051-0.09,0.097-0.171,0.147-0.261l0.019-0.034c0.049-0.086,0.097-0.172,0.145-0.258
	l0.02-0.035l0.045-0.08l0.014-0.026c0.027-0.049,0.059-0.105,0.086-0.155l0.018-0.031c0.016-0.029,0.031-0.055,0.047-0.084
	l0.012-0.022c0.029-0.053,0.055-0.101,0.085-0.154l0.019-0.034l0.044-0.078l0.021-0.039l0.079-0.142l0.02-0.035l0.044-0.079
	l0.019-0.035l0.094-0.17l0.003-0.006c0.016-0.029,0.029-0.053,0.045-0.082l0.02-0.038c0.032-0.058,0.064-0.118,0.096-0.175
	l0.001-0.001l0.042-0.077l0.024-0.044l0.04-0.074c0.01-0.018,0.018-0.034,0.029-0.052c0.022-0.041,0.044-0.08,0.066-0.122
	l0.025-0.046l0.042-0.077l0.02-0.037c0.024-0.046,0.049-0.092,0.074-0.137l0.023-0.042l0.042-0.077l0.023-0.044l0.07-0.131
	l0.023-0.045c0.014-0.025,0.029-0.053,0.042-0.078l0.022-0.041l0.07-0.131l0.024-0.045c0.014-0.025,0.027-0.049,0.04-0.074
	l0.027-0.052c0.02-0.037,0.043-0.08,0.063-0.118c0.01-0.018,0.019-0.035,0.028-0.053l0.04-0.074l0.026-0.05l0.037-0.071l0.053-0.101
	l0.04-0.075c0.008-0.015,0.016-0.032,0.025-0.047l0.04-0.076l0.013-0.024c0.026-0.05,0.053-0.101,0.079-0.151l0.023-0.045
	l0.04-0.076l0.02-0.038l0.07-0.134l0.027-0.051l0.038-0.073l0.023-0.044c0.021-0.042,0.048-0.092,0.07-0.134l0.022-0.043
	l0.039-0.075l0.025-0.048l0.068-0.133l0.021-0.043l0.04-0.076l0.023-0.045c0.024-0.046,0.046-0.089,0.07-0.135l0.021-0.041
	l0.04-0.077l0.022-0.043c0.025-0.05,0.048-0.095,0.074-0.146l0.016-0.033l0.038-0.075l0.023-0.047l0.04-0.078l0.008-0.017
	c0.028-0.055,0.051-0.101,0.079-0.156c0.008-0.015,0.018-0.035,0.025-0.051c0.013-0.025,0.025-0.049,0.038-0.075l0.023-0.045
	c0.023-0.047,0.042-0.085,0.066-0.131c0.008-0.015,0.016-0.032,0.023-0.047c0.013-0.025,0.026-0.051,0.038-0.076l0.023-0.046
	c0.021-0.042,0.043-0.087,0.064-0.129l0.025-0.05c0.012-0.025,0.024-0.048,0.036-0.073l0.027-0.056l0.057-0.115l0.028-0.056
	l0.036-0.074l0.026-0.052c0.019-0.038,0.041-0.084,0.06-0.122l0.026-0.053l0.037-0.075l0.024-0.049
	c0.042-0.085,0.082-0.167,0.124-0.252l0.025-0.05l0.036-0.075l0.016-0.032l0.07-0.143l0.025-0.053l0.035-0.071
	c0.009-0.019,0.021-0.042,0.029-0.061l0.056-0.115l0.027-0.057l0.033-0.068c0.012-0.025,0.021-0.043,0.033-0.068l0.051-0.106
	l0.027-0.057c0.012-0.025,0.023-0.048,0.035-0.074c0.008-0.015,0.017-0.034,0.024-0.049c0.02-0.043,0.041-0.085,0.061-0.128
	l0.025-0.052c0.012-0.025,0.024-0.049,0.036-0.075l0.021-0.045c0.023-0.047,0.046-0.095,0.068-0.142l0.018-0.038l0.036-0.076
	l0.023-0.05c0.026-0.056,0.049-0.103,0.075-0.159l0.009-0.019l0.037-0.078l0.021-0.046c0.012-0.026,0.025-0.053,0.037-0.079
	l0.008-0.019c0.027-0.056,0.05-0.106,0.076-0.161l0.021-0.045l0.038-0.081l0.016-0.034c0.024-0.051,0.043-0.093,0.067-0.144
	l0.021-0.046l0.036-0.078c0.008-0.016,0.018-0.037,0.025-0.052c0.02-0.043,0.038-0.081,0.057-0.124l0.025-0.054l0.035-0.076
	l0.023-0.049c0.02-0.043,0.038-0.084,0.059-0.127l0.024-0.053l0.034-0.073l0.026-0.058c0.018-0.038,0.038-0.081,0.055-0.12
	l0.025-0.055l0.035-0.076l0.023-0.052l0.033-0.072l0.048-0.106l0.033-0.071l0.027-0.06l0.031-0.068
	c0.017-0.038,0.033-0.071,0.049-0.109l0.031-0.067l0.027-0.059l0.031-0.07c0.01-0.022,0.022-0.049,0.032-0.071l0.047-0.104
	l0.028-0.063l0.032-0.071l0.025-0.055c0.019-0.043,0.035-0.078,0.054-0.122l0.026-0.058l0.031-0.069
	c0.011-0.025,0.018-0.041,0.03-0.067c0.015-0.034,0.032-0.073,0.048-0.107c0.01-0.022,0.018-0.042,0.029-0.064
	c0.009-0.022,0.021-0.049,0.031-0.071c0.008-0.019,0.018-0.041,0.026-0.06c0.016-0.034,0.029-0.064,0.044-0.099
	c0.012-0.025,0.023-0.053,0.034-0.078c0.01-0.021,0.02-0.045,0.029-0.066l0.03-0.068l0.027-0.063l0.05-0.113
	c0.007-0.017,0.02-0.045,0.027-0.063c0.009-0.022,0.019-0.045,0.029-0.067c0.01-0.022,0.02-0.044,0.029-0.066
	c0.017-0.038,0.032-0.072,0.048-0.11c0.01-0.022,0.019-0.042,0.028-0.064l0.03-0.069l0.028-0.065l0.04-0.093
	c0.013-0.03,0.022-0.05,0.035-0.081c0.01-0.022,0.02-0.045,0.029-0.067c0.01-0.021,0.02-0.044,0.029-0.066l0.034-0.08l0.039-0.091
	l0.031-0.073c0.009-0.022,0.018-0.043,0.028-0.065c0.012-0.029,0.021-0.05,0.033-0.078l0.036-0.085l0.034-0.079l0.029-0.068
	l0.031-0.071l0.031-0.075l0.043-0.101l0.025-0.059l0.033-0.076l0.023-0.057c0.016-0.038,0.033-0.077,0.049-0.116l0.025-0.06
	l0.032-0.076c0.007-0.018,0.017-0.041,0.025-0.058c0.016-0.038,0.032-0.077,0.048-0.115l0.026-0.062
	c0.009-0.022,0.021-0.05,0.031-0.073c0.007-0.018,0.017-0.042,0.025-0.059l0.043-0.105l0.03-0.072l0.031-0.074l0.025-0.062
	c0.012-0.029,0.026-0.063,0.038-0.092c0.01-0.026,0.021-0.051,0.032-0.077l0.033-0.079l0.025-0.062
	c0.01-0.025,0.021-0.053,0.033-0.079l0.034-0.085c0.012-0.029,0.024-0.058,0.036-0.087l0.024-0.058l0.032-0.079l0.031-0.076
	l0.039-0.096l0.026-0.063c0.008-0.022,0.019-0.047,0.028-0.07l0.029-0.071c0.014-0.035,0.029-0.072,0.043-0.107l0.026-0.064
	l0.029-0.071c0.008-0.022,0.016-0.041,0.025-0.063c0.015-0.038,0.031-0.076,0.046-0.115l0.025-0.063l0.028-0.07l0.027-0.066
	c0.015-0.039,0.031-0.077,0.046-0.115c0.007-0.018,0.016-0.039,0.022-0.056l0.031-0.077l0.024-0.062
	c0.012-0.029,0.025-0.063,0.036-0.092l0.031-0.079c0.012-0.029,0.02-0.05,0.031-0.079c0.009-0.022,0.018-0.044,0.026-0.066
	c0.01-0.026,0.018-0.045,0.028-0.071c0.014-0.035,0.025-0.064,0.039-0.1c0.01-0.026,0.02-0.049,0.029-0.075l0.026-0.067
	c0.009-0.023,0.02-0.049,0.028-0.072l0.037-0.094c0.01-0.026,0.021-0.055,0.031-0.081l0.027-0.068
	c0.009-0.023,0.018-0.046,0.027-0.068c0.008-0.022,0.016-0.042,0.025-0.064l0.044-0.114l0.026-0.068l0.025-0.066l0.026-0.068
	l0.043-0.112l0.027-0.07c0.009-0.022,0.016-0.041,0.025-0.063l0.026-0.069l0.043-0.112l0.023-0.06l0.031-0.08l0.023-0.06
	l0.034-0.092c0.01-0.027,0.021-0.055,0.031-0.082l0.03-0.08c0.007-0.018,0.016-0.044,0.023-0.062l0.032-0.086
	c0.01-0.027,0.021-0.055,0.031-0.082l0.033-0.086l0.024-0.064l0.029-0.077c0.01-0.027,0.018-0.05,0.029-0.076
	c0.012-0.033,0.024-0.066,0.036-0.099c0.009-0.022,0.016-0.041,0.024-0.064l0.028-0.074c0.008-0.022,0.014-0.04,0.023-0.062
	c0.014-0.039,0.03-0.08,0.044-0.119l0.021-0.056l0.03-0.081c0.007-0.018,0.014-0.04,0.021-0.058l0.044-0.122l0.019-0.051
	l0.032-0.087l0.021-0.057c0.016-0.043,0.029-0.08,0.044-0.122l0.019-0.051l0.03-0.082c0.008-0.022,0.014-0.04,0.023-0.063l0.036-0.1
	c0.008-0.022,0.018-0.048,0.025-0.07c0.011-0.03,0.021-0.057,0.031-0.087l0.021-0.06l0.035-0.098l0.021-0.059l0.036-0.101
	l0.022-0.061l0.03-0.085c0.008-0.022,0.014-0.04,0.022-0.062c0.014-0.039,0.026-0.072,0.04-0.111l0.021-0.059
	c0.009-0.026,0.021-0.058,0.03-0.084l0.019-0.053l0.042-0.12c0.007-0.018,0.016-0.044,0.021-0.062c0.01-0.026,0.02-0.054,0.029-0.08
	l0.02-0.058c0.014-0.039,0.029-0.081,0.042-0.12c0.008-0.022,0.012-0.036,0.021-0.058l0.028-0.081l0.02-0.057l0.04-0.116
	l0.023-0.065c0.008-0.023,0.019-0.055,0.027-0.078l0.021-0.061l0.038-0.11l0.021-0.062l0.03-0.087l0.021-0.062
	c0.009-0.026,0.02-0.055,0.028-0.082c0.013-0.036,0.021-0.06,0.033-0.096l0.027-0.079l0.022-0.065l0.027-0.078l0.025-0.074
	c0.012-0.036,0.023-0.068,0.035-0.105c0.007-0.018,0.014-0.04,0.02-0.058c0.01-0.03,0.019-0.056,0.029-0.086l0.018-0.055
	c0.014-0.04,0.028-0.082,0.041-0.122l0.02-0.06c0.009-0.026,0.018-0.053,0.027-0.08c0.007-0.018,0.014-0.041,0.02-0.06
	c0.013-0.04,0.027-0.08,0.04-0.12c0.007-0.023,0.013-0.039,0.02-0.061c0.009-0.026,0.018-0.052,0.026-0.078
	c0.007-0.018,0.015-0.045,0.021-0.063l0.041-0.122l0.018-0.053c0.008-0.027,0.018-0.057,0.027-0.083l0.02-0.062l0.035-0.104
	c0.008-0.027,0.014-0.043,0.023-0.07l0.029-0.088l0.02-0.061c0.011-0.033,0.021-0.062,0.031-0.095
	c0.008-0.023,0.015-0.045,0.022-0.068c0.011-0.033,0.021-0.065,0.032-0.098c0.006-0.018,0.013-0.04,0.02-0.058
	c0.009-0.03,0.019-0.06,0.029-0.09l0.023-0.072c0.01-0.033,0.021-0.067,0.033-0.1l0.02-0.063l0.027-0.083l0.018-0.053
	c0.014-0.043,0.025-0.081,0.04-0.124l0.019-0.059l0.027-0.086l0.018-0.055c0.012-0.04,0.027-0.086,0.04-0.126l0.017-0.054
	l0.027-0.086l0.018-0.057l0.04-0.125c0.005-0.018,0.01-0.034,0.016-0.052l0.028-0.09c0.006-0.018,0.012-0.038,0.018-0.057
	l0.034-0.109l0.021-0.067l0.028-0.09c0.006-0.018,0.012-0.036,0.017-0.055c0.013-0.04,0.022-0.07,0.034-0.11l0.016-0.05
	c0.012-0.04,0.022-0.07,0.034-0.111l0.016-0.053l0.029-0.096l0.016-0.052c0.012-0.04,0.025-0.08,0.036-0.12
	c0.006-0.019,0.012-0.039,0.018-0.058c0.01-0.03,0.018-0.058,0.027-0.088l0.016-0.054c0.013-0.043,0.025-0.082,0.038-0.126
	c0.006-0.018,0.012-0.038,0.017-0.057l0.025-0.082l0.018-0.061c0.012-0.04,0.025-0.083,0.037-0.123
	c0.006-0.018,0.012-0.037,0.017-0.056c0.008-0.027,0.018-0.06,0.026-0.087l0.018-0.058l0.038-0.126l0.015-0.05l0.027-0.091
	c0.006-0.019,0.011-0.037,0.016-0.055l0.039-0.13l0.012-0.039l0.03-0.102l0.016-0.054c0.01-0.037,0.021-0.074,0.033-0.111
	l0.015-0.051l0.031-0.106l0.017-0.059c0.01-0.034,0.02-0.065,0.029-0.099l0.012-0.04c0.012-0.044,0.025-0.088,0.038-0.132
	c0.005-0.014,0.012-0.039,0.016-0.053l0.028-0.096l0.013-0.046c0.013-0.044,0.025-0.086,0.038-0.129l0.015-0.053l0.028-0.097
	l0.013-0.046c0.013-0.044,0.025-0.088,0.038-0.132c0.005-0.014,0.01-0.034,0.014-0.048l0.029-0.099l0.013-0.047
	c0.012-0.044,0.025-0.088,0.038-0.132l0.014-0.049l0.027-0.095l0.016-0.054c0.012-0.044,0.024-0.087,0.036-0.131l0.011-0.038
	c0.009-0.034,0.02-0.071,0.029-0.105l0.014-0.05l0.031-0.114l0.014-0.051l0.031-0.112l0.014-0.05c0.01-0.034,0.021-0.075,0.03-0.109
	l0.01-0.034c0.012-0.044,0.025-0.09,0.036-0.133l0.014-0.051l0.027-0.101l0.012-0.044c0.012-0.044,0.024-0.09,0.036-0.134
	l0.012-0.046l0.029-0.105l0.011-0.041l0.037-0.137l0.011-0.043l0.028-0.103c0.005-0.019,0.008-0.03,0.013-0.049l0.036-0.134
	l0.011-0.041l0.027-0.101l0.014-0.053l0.035-0.132l0.01-0.038c0.008-0.034,0.019-0.071,0.027-0.105
	c0.005-0.019,0.01-0.035,0.014-0.054c0.01-0.037,0.02-0.077,0.031-0.115l0.012-0.048c0.009-0.034,0.02-0.078,0.029-0.112
	l0.014-0.052c0.009-0.034,0.02-0.076,0.029-0.109l0.008-0.035c0.012-0.044,0.023-0.09,0.035-0.135l0.013-0.049
	c0.009-0.037,0.02-0.076,0.029-0.113l0.008-0.03c0.012-0.044,0.025-0.094,0.036-0.139l0.012-0.046
	c0.009-0.034,0.019-0.073,0.027-0.106l0.01-0.041c0.012-0.048,0.023-0.089,0.035-0.136l0.012-0.048
	c0.008-0.034,0.016-0.066,0.025-0.1l0.012-0.048c0.011-0.044,0.023-0.092,0.034-0.136l0.01-0.038l0.027-0.11l0.012-0.046
	l0.034-0.137l0.009-0.035l0.027-0.112c0.004-0.014,0.008-0.031,0.011-0.045l0.032-0.129l0.008-0.035
	c0.01-0.041,0.02-0.081,0.03-0.122l0.012-0.047c0.01-0.041,0.018-0.073,0.028-0.114l0.008-0.031
	c0.011-0.045,0.023-0.093,0.033-0.138l0.012-0.047c0.008-0.034,0.018-0.075,0.026-0.109l0.01-0.039
	c0.011-0.045,0.023-0.094,0.033-0.138l0.01-0.044c0.008-0.034,0.018-0.071,0.025-0.105l0.011-0.045
	c0.011-0.048,0.021-0.09,0.033-0.138l0.01-0.04c0.008-0.035,0.018-0.075,0.026-0.109l0.01-0.046
	c0.011-0.045,0.022-0.092,0.033-0.136l0.01-0.042c0.008-0.035,0.016-0.071,0.025-0.105l0.011-0.049
	c0.011-0.045,0.022-0.092,0.033-0.137l0.008-0.036c0.008-0.034,0.018-0.077,0.026-0.111l0.012-0.049l0.032-0.14l0.003-0.012
	l0.03-0.129l0.012-0.052l0.025-0.112l0.008-0.034l0.031-0.135l0.012-0.053l0.023-0.1l0.01-0.047c0.01-0.045,0.02-0.086,0.029-0.131
	c0.005-0.019,0.009-0.038,0.013-0.057c0.008-0.034,0.014-0.063,0.021-0.097c0.003-0.014,0.008-0.035,0.011-0.049
	c0.01-0.045,0.02-0.09,0.03-0.134l0.011-0.048c0.007-0.034,0.015-0.069,0.023-0.104l0.01-0.046l0.03-0.137l0.01-0.043
	c0.007-0.035,0.016-0.073,0.023-0.107l0.01-0.047l0.03-0.139l0.007-0.032c0.008-0.038,0.017-0.076,0.025-0.114
	c0.003-0.014,0.008-0.034,0.01-0.048l0.028-0.128l0.008-0.038c0.009-0.041,0.018-0.08,0.026-0.121l0.01-0.046
	c0.008-0.042,0.018-0.085,0.027-0.127l0.004-0.019l0.031-0.144l0.009-0.043c0.009-0.041,0.016-0.078,0.025-0.119l0.007-0.031
	c0.01-0.049,0.02-0.094,0.03-0.143l0.008-0.041c0.008-0.042,0.016-0.076,0.025-0.117l0.007-0.033c0.01-0.049,0.02-0.095,0.03-0.143
	l0.008-0.041l0.023-0.11l0.009-0.045l0.029-0.144l0.006-0.027l0.025-0.121l0.008-0.042l0.029-0.143l0.006-0.028l0.025-0.121
	l0.008-0.045c0.01-0.048,0.02-0.095,0.029-0.144l0.002-0.01c0.009-0.045,0.018-0.093,0.027-0.138l0.008-0.041
	c0.008-0.042,0.018-0.089,0.026-0.131l0.004-0.02c0.01-0.049,0.019-0.094,0.028-0.142l0.01-0.048
	c0.007-0.038,0.015-0.079,0.023-0.117l0.006-0.03c0.008-0.045,0.019-0.098,0.027-0.143c0.004-0.019,0.005-0.024,0.008-0.044
	c0.008-0.038,0.016-0.078,0.023-0.117l0.007-0.035c0.01-0.049,0.018-0.095,0.028-0.144c0.003-0.014,0.005-0.027,0.008-0.041
	l0.021-0.113l0.007-0.04c0.01-0.049,0.018-0.093,0.027-0.142l0.008-0.041c0.007-0.035,0.014-0.075,0.021-0.11l0.008-0.048
	l0.026-0.139l0.008-0.041l0.02-0.108l0.009-0.049l0.025-0.134l0.007-0.034c0.007-0.042,0.014-0.081,0.022-0.122l0.009-0.048
	c0.007-0.042,0.015-0.084,0.023-0.125l0.004-0.022c0.009-0.049,0.018-0.096,0.026-0.145l0.008-0.042
	c0.007-0.042,0.014-0.081,0.022-0.123l0.005-0.029c0.008-0.049,0.018-0.097,0.026-0.146l0.007-0.039l0.02-0.117l0.007-0.039
	c0.008-0.049,0.017-0.094,0.025-0.143l0.007-0.04c0.006-0.035,0.014-0.08,0.02-0.115c0.002-0.014,0.005-0.028,0.007-0.042
	l0.025-0.142l0.007-0.04l0.019-0.111c0.003-0.015,0.006-0.032,0.008-0.046l0.025-0.144l0.005-0.031l0.02-0.118l0.008-0.05
	l0.023-0.137l0.005-0.031l0.02-0.119l0.008-0.053l0.021-0.122l0.004-0.025c0.008-0.049,0.016-0.094,0.024-0.143l0.008-0.048
	c0.007-0.039,0.012-0.077,0.019-0.116l0.006-0.034c0.007-0.046,0.016-0.097,0.023-0.143l0.008-0.047
	c0.007-0.038,0.012-0.076,0.019-0.115l0.006-0.037c0.008-0.049,0.015-0.095,0.023-0.144l0.007-0.041
	c0.005-0.035,0.012-0.079,0.018-0.115l0.007-0.041l0.023-0.143l0.007-0.043c0.006-0.035,0.012-0.076,0.018-0.111l0.007-0.047
	c0.007-0.046,0.016-0.097,0.023-0.143l0.005-0.032l0.019-0.12l0.007-0.044l0.023-0.145l0.003-0.021l0.02-0.13l0.007-0.046
	l0.019-0.123l0.005-0.033c0.007-0.046,0.014-0.091,0.021-0.137l0.008-0.05l0.016-0.11l0.007-0.043
	c0.007-0.046,0.014-0.095,0.021-0.141l0.007-0.045c0.006-0.039,0.012-0.077,0.017-0.116l0.006-0.037l0.021-0.144l0.007-0.045
	l0.016-0.108l0.007-0.048l0.02-0.142l0.006-0.04c0.005-0.035,0.011-0.077,0.016-0.113l0.007-0.047l0.02-0.144l0.005-0.031
	l0.016-0.12c0.003-0.015,0.005-0.034,0.007-0.048c0.007-0.049,0.013-0.095,0.02-0.145l0.003-0.018
	c0.006-0.046,0.012-0.086,0.018-0.132c0.003-0.019,0.004-0.028,0.007-0.047l0.018-0.127l0.004-0.027
	c0.006-0.046,0.012-0.095,0.019-0.141l0.007-0.048l0.017-0.125l0.003-0.025c0.006-0.046,0.014-0.102,0.02-0.148l0.006-0.042
	l0.016-0.118l0.005-0.038l0.019-0.144l0.006-0.046c0.005-0.036,0.01-0.077,0.015-0.113c0.001-0.015,0.003-0.027,0.005-0.042
	c0.007-0.05,0.012-0.097,0.019-0.147l0.004-0.033c0.006-0.043,0.01-0.081,0.016-0.124l0.005-0.04l0.019-0.147l0.004-0.032
	l0.015-0.123c0.002-0.015,0.004-0.027,0.005-0.042c0.007-0.05,0.012-0.098,0.019-0.148l0.003-0.025l0.016-0.128l0.006-0.046
	c0.005-0.047,0.01-0.089,0.016-0.135l0.002-0.016c0.006-0.05,0.012-0.097,0.018-0.147l0.006-0.047l0.014-0.119l0.004-0.034
	c0.005-0.046,0.012-0.099,0.017-0.146l0.005-0.043c0.005-0.043,0.009-0.076,0.014-0.119l0.005-0.036
	c0.006-0.05,0.011-0.099,0.017-0.148l0.004-0.035c0.005-0.043,0.01-0.081,0.014-0.124l0.005-0.037
	c0.005-0.05,0.011-0.098,0.016-0.148l0.005-0.037c0.005-0.039,0.008-0.077,0.013-0.116c0.002-0.02,0.003-0.027,0.005-0.047
	c0.005-0.047,0.011-0.098,0.016-0.145l0.004-0.035c0.005-0.043,0.008-0.078,0.014-0.121l0.005-0.045
	c0.005-0.05,0.011-0.099,0.016-0.149l0.001-0.015l0.015-0.136l0.005-0.045l0.015-0.137l0.001-0.016
	c0.005-0.05,0.011-0.101,0.016-0.151l0.004-0.04l0.014-0.133l0.003-0.022l0.015-0.151l0.004-0.038l0.014-0.131l0.003-0.026
	c0.005-0.05,0.01-0.102,0.015-0.152l0.004-0.035c0.004-0.043,0.008-0.085,0.012-0.128l0.003-0.032c0.005-0.05,0.01-0.1,0.015-0.15
	l0.003-0.038c0.005-0.043,0.008-0.077,0.012-0.12l0.004-0.041c0.005-0.05,0.01-0.1,0.014-0.15l0.003-0.026
	c0.004-0.043,0.008-0.086,0.012-0.129l0.004-0.042l0.014-0.149l0.003-0.025l0.012-0.132l0.004-0.041
	c0.005-0.047,0.009-0.098,0.013-0.145l0.001-0.009l0.014-0.153l0.003-0.038l0.012-0.134l0.002-0.023
	c0.004-0.05,0.008-0.102,0.013-0.152l0.003-0.038c0.004-0.043,0.008-0.086,0.011-0.129l0.003-0.029
	c0.005-0.05,0.008-0.101,0.013-0.151l0.003-0.038c0.003-0.043,0.007-0.08,0.01-0.124l0.003-0.037
	c0.004-0.05,0.008-0.102,0.012-0.153l0.002-0.027c0.004-0.043,0.007-0.088,0.011-0.131l0.003-0.038
	c0.005-0.05,0.008-0.103,0.012-0.153l0.002-0.022l0.01-0.133c0.001-0.015,0.003-0.027,0.003-0.042
	c0.005-0.05,0.008-0.102,0.012-0.152l0.001-0.012c0.004-0.047,0.007-0.094,0.011-0.141l0.003-0.042
	c0.003-0.047,0.007-0.098,0.011-0.145l0.001-0.01c0.004-0.05,0.007-0.099,0.011-0.149l0.004-0.049
	c0.003-0.043,0.006-0.083,0.009-0.126l0.002-0.027l0.01-0.149l0.003-0.046c0.003-0.043,0.006-0.076,0.008-0.119l0.003-0.037
	c0.003-0.051,0.007-0.098,0.01-0.149l0.003-0.04c0.003-0.044,0.005-0.08,0.008-0.123l0.003-0.036l0.01-0.151l0.003-0.036
	c0.003-0.043,0.005-0.08,0.008-0.123l0.003-0.041l0.01-0.15l0.002-0.031c0.003-0.043,0.005-0.085,0.008-0.128l0.003-0.039
	c0.003-0.05,0.007-0.102,0.009-0.153l0.001-0.02c0.003-0.047,0.006-0.089,0.008-0.136l0.003-0.043
	c0.003-0.05,0.007-0.098,0.009-0.149l0.001-0.005c0.003-0.051,0.006-0.104,0.009-0.154l0.002-0.041
	c0.003-0.047,0.005-0.089,0.008-0.136l0.001-0.021c0.003-0.054,0.005-0.1,0.008-0.154l0.002-0.037l0.008-0.129l0.001-0.032
	c0.003-0.051,0.006-0.101,0.008-0.152l0.002-0.036c0.003-0.044,0.005-0.087,0.007-0.131l0.001-0.031
	c0.003-0.051,0.006-0.105,0.008-0.156l0.001-0.029c0.003-0.044,0.005-0.089,0.007-0.133l0.002-0.034l0.008-0.156l0.001-0.024
	c0.003-0.044,0.005-0.092,0.007-0.136l0.001-0.036l0.008-0.158l0.001-0.008c0.002-0.047,0.005-0.099,0.007-0.146l0.002-0.043
	c0.003-0.051,0.005-0.101,0.007-0.152v-0.003c0.003-0.051,0.005-0.105,0.007-0.156l0.001-0.039c0.003-0.047,0.005-0.094,0.007-0.142
	l0.001-0.015c0.002-0.051,0.005-0.104,0.007-0.154l0.001-0.041l0.006-0.129l0.001-0.031c0.003-0.051,0.005-0.102,0.007-0.153
	l0.001-0.039c0.002-0.044,0.003-0.084,0.005-0.128l0.001-0.032c0.002-0.051,0.004-0.102,0.005-0.153l0.002-0.04
	c0.001-0.044,0.003-0.078,0.005-0.122l0.001-0.041c0.002-0.051,0.003-0.1,0.005-0.151l0.001-0.034l0.004-0.124l0.002-0.046
	c0.001-0.051,0.003-0.1,0.005-0.151l0.001-0.021c0.002-0.044,0.003-0.094,0.005-0.137l0.001-0.041
	c0.002-0.051,0.003-0.103,0.005-0.154v-0.002c0.002-0.051,0.003-0.106,0.005-0.157l0.001-0.038l0.004-0.14l0.001-0.02
	c0.002-0.055,0.003-0.101,0.005-0.156l0.001-0.036l0.004-0.137l0.001-0.023l0.004-0.156l0.001-0.036
	c0.001-0.044,0.002-0.083,0.003-0.127l0.001-0.038c0.001-0.051,0.002-0.103,0.003-0.154l0.001-0.032
	c0.001-0.044,0.002-0.084,0.003-0.128l0.001-0.041c0.001-0.051,0.002-0.102,0.003-0.153v-0.028c0.001-0.044,0.002-0.085,0.003-0.129
	l0.001-0.045c0.001-0.051,0.002-0.101,0.003-0.152v-0.021c0.001-0.044,0.002-0.092,0.003-0.136l0.001-0.043l0.002-0.154l0.001-0.003
	l0.002-0.156l0.001-0.042l0.002-0.148v-0.007l0.002-0.159l0.001-0.038c0-0.044,0.001-0.089,0.001-0.133v-0.029l0.002-0.154v-0.041
	c0.001-0.044,0.001-0.08,0.001-0.124v-0.037c0.001-0.051,0.001-0.103,0.001-0.154l0.001-0.032c0-0.044,0-0.089,0.001-0.133v-0.035
	c0.001-0.051,0.001-0.103,0.001-0.155l0.001-0.033v-0.128l0.001-0.041v-0.177C384,192.292,384,192.244,384,192.2V192v-0.195
	c0-0.04,0-0.079-0.001-0.119v-0.224c-0.001-0.039-0.001-0.078-0.001-0.117v-0.047c-0.001-0.049-0.001-0.099-0.001-0.148v-0.021
	c0-0.044-0.001-0.088-0.001-0.132l-0.001-0.045c0-0.041,0-0.083-0.001-0.123v-0.031c-0.001-0.048-0.001-0.097-0.001-0.146
	l-0.001-0.048c0-0.037-0.001-0.074-0.001-0.111l-0.001-0.044l-0.002-0.147v-0.033c-0.001-0.041-0.001-0.082-0.001-0.122
	l-0.001-0.043l-0.002-0.128v-0.035l-0.002-0.137c-0.001-0.015-0.001-0.036-0.001-0.051l-0.002-0.107l-0.001-0.046
	c-0.001-0.047-0.001-0.095-0.003-0.142c0-0.015,0-0.035-0.001-0.05l-0.002-0.102l-0.001-0.057c-0.001-0.045-0.002-0.091-0.003-0.136
	l-0.001-0.036c-0.001-0.04-0.001-0.079-0.003-0.119l-0.001-0.056c-0.001-0.034-0.002-0.07-0.003-0.104l-0.001-0.047
	c-0.001-0.046-0.002-0.093-0.003-0.14l-0.001-0.056l-0.002-0.095c-0.001-0.02-0.001-0.038-0.001-0.058
	c-0.001-0.046-0.003-0.092-0.003-0.139l-0.001-0.047c-0.001-0.034-0.002-0.068-0.003-0.102l-0.002-0.062l-0.002-0.096
	c-0.001-0.02-0.002-0.053-0.002-0.073c-0.001-0.039-0.003-0.077-0.003-0.116l-0.002-0.062c-0.001-0.03-0.002-0.06-0.003-0.09
	l-0.002-0.063l-0.004-0.132l-0.002-0.065c-0.001-0.027-0.001-0.054-0.003-0.081l-0.002-0.071c-0.001-0.03-0.002-0.059-0.003-0.089
	l-0.004-0.105c-0.001-0.027-0.001-0.052-0.003-0.079c-0.001-0.025-0.001-0.054-0.003-0.079l-0.002-0.068
	c-0.001-0.025-0.002-0.06-0.003-0.084l-0.004-0.116l-0.003-0.083l-0.002-0.064c-0.001-0.025-0.002-0.055-0.003-0.08l-0.003-0.081
	c-0.002-0.04-0.003-0.077-0.005-0.117c-0.001-0.024-0.002-0.047-0.003-0.071l-0.003-0.079c-0.001-0.022-0.002-0.044-0.003-0.066
	l-0.006-0.136c-0.001-0.022-0.001-0.045-0.003-0.066c-0.001-0.025-0.003-0.058-0.003-0.083l-0.003-0.06l-0.004-0.085l-0.002-0.051
	c-0.003-0.055-0.005-0.1-0.007-0.155c-0.001-0.018-0.002-0.037-0.003-0.056l-0.004-0.089c-0.001-0.016-0.001-0.032-0.003-0.048
	l-0.007-0.167l-0.002-0.043c-0.002-0.035-0.003-0.057-0.005-0.092c-0.001-0.017-0.001-0.033-0.003-0.05
	c-0.005-0.099-0.01-0.204-0.014-0.304l-0.003-0.043c-0.001-0.035-0.003-0.06-0.005-0.095l-0.002-0.034
	c-0.003-0.064-0.006-0.125-0.01-0.189l-0.001-0.028l-0.005-0.102l-0.002-0.03c-0.005-0.109-0.011-0.213-0.017-0.323l-0.002-0.03
	c-0.006-0.109-0.012-0.223-0.019-0.333l-0.001-0.014c-0.003-0.04-0.005-0.073-0.007-0.113l-0.001-0.007l-0.021-0.346l-0.001-0.013
	l-0.021-0.344l-0.001-0.009c-0.254-4.008-0.664-7.972-1.23-11.889C381.702,165.281,377.215,161.396,371.925,161.389L371.925,161.389
	z"/>
<circle style="fill:#B39DDD;" cx="234.667" cy="191.997" r="42.667"/>
<path style="fill:#A68CD8;" d="M192,192v0.092l0,0.051v0.022l0,0.051v0.02l0,0.052v0.02l0.001,0.053v0.018l0.001,0.055v0.016
	l0.001,0.057l0,0.014l0.001,0.059l0,0.014l0.001,0.058l0,0.015l0.001,0.056l0,0.018l0.001,0.051l0,0.022l0.001,0.041l0.001,0.035
	l0,0.02c0.005,0.219,0.011,0.439,0.019,0.658c0.275,5.714,5.076,10.154,10.794,9.983c5.848-0.174,10.503-4.957,10.52-10.807
	c0-0.049,0-0.098-0.001-0.146L213.334,192c0-11.782,9.551-21.333,21.333-21.333S256,180.218,256,192l0,0
	c0,0.823-0.046,1.646-0.139,2.464c-0.046,0.405-0.069,0.812-0.069,1.219c0.008,5.891,4.79,10.661,10.681,10.653
	c5.419-0.007,9.972-4.077,10.585-9.461c0.071-0.624,0.128-1.253,0.172-1.885l0-0.004l0.005-0.069l0.001-0.009l0.004-0.065
	l0.001-0.01l0.004-0.065l0.001-0.01l0.004-0.07l0-0.003c0.003-0.05,0.006-0.101,0.009-0.151v-0.003l0.004-0.07l0.001-0.018
	l0.003-0.055l0.001-0.023l0.003-0.049l0.002-0.025l0.002-0.049l0.001-0.024l0.003-0.049l0.001-0.025l0.002-0.048l0.001-0.025
	l0.002-0.053l0.001-0.02l0.003-0.073l0.001-0.01l0.003-0.061l0.001-0.029l0.002-0.044l0.001-0.03l0.002-0.043l0.001-0.031
	l0.002-0.042l0.001-0.033l0.001-0.039l0.001-0.034l0.001-0.04l0.001-0.033l0.002-0.043l0.001-0.029l0.002-0.055l0.001-0.018
	l0.002-0.07l0.001-0.034l0.001-0.04l0.001-0.032l0.001-0.042l0.001-0.032l0.001-0.04l0.001-0.033l0.001-0.04l0.001-0.034
	l0.001-0.042l0.001-0.03l0.001-0.044l0-0.031l0.001-0.046l0-0.027l0.001-0.071l0.001-0.026l0-0.048l0-0.028l0.001-0.045l0-0.031
	l0-0.042l0-0.032l0-0.041l0-0.033l0-0.043v-0.03l0-0.045v-0.029l0-0.049V192c0-23.564-19.103-42.667-42.667-42.667
	C211.103,149.334,192.001,168.436,192,192L192,192z"/>
<g>
	<path style="fill:#F6F4FB;" d="M320.948,319.053l40.771-40.771c8.331-8.331,8.331-21.839,0-30.17
		c-1.919-1.919-4.187-3.454-6.681-4.523l-69.236-28.465c-17.701-7.586-35.598,10.311-28.012,28.012l28.465,69.236
		c4.641,10.829,17.183,15.846,28.012,11.205C316.761,322.507,319.029,320.972,320.948,319.053L320.948,319.053z"/>
	<circle style="fill:#F6F4FB;" cx="106.667" cy="341.337" r="21.333"/>
	<circle style="fill:#F6F4FB;" cx="362.667" cy="341.337" r="21.333"/>
	<circle style="fill:#F6F4FB;" cx="106.667" cy="42.667" r="21.333"/>
	<circle style="fill:#F6F4FB;" cx="362.667" cy="42.667" r="21.333"/>
</g>
<g>
	<path style="fill:#653BB1;" d="M224.004,405.337L224.004,405.337c5.891,0,10.666,4.776,10.666,10.667v21.333
		c0,5.891-4.776,10.667-10.667,10.667h0c-5.891,0-10.667-4.776-10.667-10.667v-21.333
		C213.337,410.113,218.113,405.337,224.004,405.337z"/>
	<path style="fill:#653BB1;" d="M266.663,405.337L266.663,405.337c5.891,0,10.667,4.776,10.667,10.667v21.333
		c0,5.891-4.776,10.667-10.667,10.667l0,0c-5.891,0-10.666-4.776-10.666-10.667v-21.333
		C255.997,410.113,260.773,405.337,266.663,405.337z"/>
	<path style="fill:#653BB1;" d="M309.333,405.337L309.333,405.337c5.891,0,10.667,4.776,10.667,10.667v21.333
		c0,5.891-4.776,10.667-10.667,10.667l0,0c-5.891,0-10.667-4.776-10.667-10.667v-21.333
		C298.667,410.113,303.443,405.337,309.333,405.337z"/>
	<path style="fill:#653BB1;" d="M352.004,405.337L352.004,405.337c5.891,0,10.667,4.776,10.667,10.667v21.333
		c0,5.891-4.776,10.667-10.667,10.667l0,0c-5.891,0-10.667-4.776-10.667-10.667v-21.333
		C341.337,410.113,346.113,405.337,352.004,405.337z"/>
</g>
<path style="fill:#A68CD8;" d="M117.334,383.997H352c5.891,0,10.667,4.776,10.667,10.667l0,0c0,5.891-4.776,10.667-10.667,10.667
	H117.334c-5.891,0-10.667-4.776-10.667-10.667l0,0C106.667,388.773,111.443,383.997,117.334,383.997z"/>
<path style="fill:#DFD7F0;" d="M117.334,0H352c5.891,0,10.667,4.776,10.667,10.667l0,0c0,5.891-4.776,10.667-10.667,10.667H117.334
	c-5.891,0-10.667-4.776-10.667-10.667l0,0C106.667,4.776,111.443,0,117.334,0z"/>
<path style="fill:#D3C8EB;" d="M320.948,319.052l14.592-14.592c-5.891,5.891-15.442,5.891-21.333,0
	c-1.099-1.099-2.021-2.361-2.735-3.741l-29.077-56.257c-3.015-5.834-1.909-12.949,2.734-17.592l8.521-8.521l-7.849-3.227
	c-17.701-7.586-35.599,10.311-28.013,28.012l28.465,69.237c4.642,10.83,17.184,15.846,28.013,11.204
	C316.762,322.507,319.029,320.971,320.948,319.052L320.948,319.052z"/>
<g>
</g>
<g>
</g>
<g>
</g>
<g>
</g>
<g>
</g>
<g>
</g>
<g>
</g>
<g>
</g>
<g>
</g>
<g>
</g>
<g>
</g>
<g>
</g>
<g>
</g>
<g>
</g>
<g>
</g>
</svg>
