<?xml version="1.0"?>
<svg xmlns="http://www.w3.org/2000/svg" xmlns:xlink="http://www.w3.org/1999/xlink" version="1.1" id="Capa_1" x="0px" y="0px" viewBox="0 0 512.001 512.001" style="enable-background:new 0 0 512.001 512.001;" xml:space="preserve" width="512px" height="512px" class=""><g transform="matrix(0.9998, 0, 0, 0.9998, 0.0511974, -89.9308)"><g>
	<g>
		<path d="M451.156,325.648c3.582,2.076,8.172,0.856,10.25-2.727c19.216-33.149,47.244-53.919,47.519-54.121    c2.748-2.008,3.8-5.612,2.563-8.782c-1.237-3.17-4.456-5.116-7.833-4.727c-2.456,0.279-53.917,6.423-96.387,33.928    c9.069-16.12,18.788-29.877,27.709-41.029c26.768-33.46,52.387-51.575,52.638-51.751c2.868-2.002,3.971-5.721,2.659-8.963    s-4.691-5.144-8.144-4.591c-2.343,0.377-58.128,9.76-123.843,55.35c-1.325,0.919-2.641,1.871-3.949,2.854    c4.203-56.658,16.934-96.601,17.074-97.034c1.012-3.121-0.123-6.538-2.801-8.434c-2.679-1.897-6.278-1.833-8.886,0.161    c-1.504,1.148-34.125,26.437-66.962,80.376c-12.234-51.466-28.617-97.455-29.702-100.479c-1.069-2.98-3.894-4.968-7.06-4.968    c-3.166,0-5.991,1.988-7.06,4.968c-0.19,0.531-17.158,48.067-29.659,100.519c-32.786-53.901-65.415-79.201-67.007-80.417    c-2.606-1.992-6.205-2.055-8.882-0.16c-2.678,1.894-3.813,5.31-2.804,8.431c0.141,0.437,12.872,40.379,17.075,97.037    c-1.308-0.983-2.625-1.935-3.95-2.854C88,192.647,32.215,183.264,29.872,182.887c-3.453-0.556-6.832,1.349-8.144,4.591    c-1.312,3.242-0.209,6.961,2.659,8.963c0.252,0.177,25.568,18.021,52.323,51.359c9.025,11.246,18.861,25.134,28.026,41.423    c-42.47-27.507-93.933-33.651-96.389-33.93c-3.374-0.376-6.596,1.556-7.833,4.727c-1.237,3.17-0.185,6.774,2.563,8.782    c0.28,0.204,28.227,20.841,47.519,54.119c2.078,3.584,6.667,4.806,10.25,2.727c3.583-2.077,4.804-6.666,2.727-10.25    c-9.61-16.577-21.063-30.147-30.744-40.053c22.338,5.632,54.592,16.791,78.809,37.692c3.052,2.634,6.021,5.59,8.844,8.792    c6.687,16.472,12.201,34.622,15.596,54.318c0.035,0.203,0.07,0.406,0.105,0.609c0.533,3.137,0.999,6.32,1.421,9.534H83.612    c0.046-6.078-0.359-12.188-1.212-18.245c-0.578-4.102-4.366-6.958-8.473-6.381c-4.102,0.578-6.958,4.371-6.38,8.473    c0.756,5.366,1.103,10.775,1.056,16.153h-58.15c-4.142,0-7.5,3.357-7.5,7.5s3.358,7.5,7.5,7.5h491.094c4.142,0,7.5-3.357,7.5-7.5    s-3.358-7.5-7.5-7.5h-58.148c-0.046-5.378,0.3-10.786,1.056-16.153c0.578-4.102-2.279-7.895-6.38-8.473    c-4.106-0.581-7.896,2.279-8.473,6.381c-0.854,6.058-1.258,12.168-1.212,18.245H374.4c0.42-3.203,0.884-6.375,1.415-9.501    c0.032-0.19,0.066-0.381,0.098-0.571c3.395-19.729,8.918-37.905,15.613-54.395c2.821-3.201,5.788-6.155,8.838-8.787    c24.164-20.855,56.431-32.022,78.787-37.669c-9.676,9.903-21.12,23.467-30.723,40.031    C446.351,318.982,447.572,323.571,451.156,325.648z M350.461,164.801c-4.649,20.537-10.295,52.203-11.973,90.151    c-1.023,1.028-2.038,2.086-3.05,3.158c-0.21,0.222-0.42,0.445-0.629,0.669c-1.061,1.136-2.115,2.293-3.163,3.477    c-0.204,0.23-0.406,0.465-0.61,0.697c-1.006,1.148-2.007,2.313-3,3.505c-0.138,0.166-0.277,0.331-0.415,0.497    c-0.968,1.169-1.929,2.365-2.885,3.576c-0.272,0.344-0.544,0.686-0.815,1.034c-0.934,1.199-1.863,2.419-2.785,3.657    c-0.305,0.409-0.608,0.822-0.911,1.235c-0.92,1.253-1.836,2.519-2.744,3.811c-0.242,0.344-0.481,0.696-0.721,1.042    c-0.794,1.143-1.583,2.301-2.367,3.474c-0.241,0.361-0.484,0.717-0.725,1.081c-0.908,1.374-1.807,2.773-2.702,4.186    c-0.257,0.407-0.515,0.814-0.771,1.225c-0.908,1.453-1.81,2.924-2.704,4.418c-0.192,0.321-0.383,0.646-0.574,0.969    c-0.343,0.579-0.689,1.154-1.03,1.739c-0.012-0.273-0.03-0.555-0.043-0.829c-0.893-18.442-4.056-39.152-8.293-59.824    C315.515,205.415,335.366,180.675,350.461,164.801z M255.998,141.698c8.881,27.398,23.835,77.167,31.016,121.877    c0.091,0.565,0.179,1.126,0.266,1.686c0.137,0.876,0.271,1.749,0.402,2.62c0.129,0.857,0.255,1.711,0.376,2.556    c0.063,0.441,0.127,0.882,0.188,1.322c0.169,1.203,0.332,2.398,0.486,3.576c0.027,0.206,0.052,0.411,0.079,0.617    c0.147,1.139,0.286,2.267,0.419,3.384c0.024,0.198,0.048,0.397,0.071,0.595c0.149,1.273,0.289,2.532,0.42,3.775    c0.012,0.112,0.023,0.224,0.034,0.336c0.124,1.196,0.24,2.377,0.347,3.544c0.01,0.109,0.021,0.219,0.031,0.328    c0.112,1.238,0.215,2.46,0.308,3.666c0.008,0.109,0.016,0.216,0.024,0.324c0.082,1.086,0.156,2.158,0.222,3.217    c0.011,0.172,0.022,0.345,0.033,0.517c0.069,1.139,0.129,2.263,0.18,3.371c0.006,0.128,0.01,0.255,0.016,0.383    c0.042,0.951,0.075,1.888,0.103,2.815c0.008,0.264,0.016,0.529,0.023,0.792c0.027,1.041,0.048,2.072,0.057,3.083    c0.013,1.467,0.022,2.912,0.028,4.342c-11.672,6.413-23.841,15.127-35.12,26.977c-0.488-0.513-0.979-1.018-1.47-1.52    c-0.009-0.646-0.033-1.277-0.046-1.919c-0.021-1.095-0.046-2.187-0.078-3.272c-0.035-1.163-0.079-2.318-0.127-3.47    c-0.044-1.068-0.091-2.134-0.146-3.193c-0.06-1.146-0.13-2.282-0.203-3.417c-0.067-1.041-0.135-2.08-0.213-3.11    c-0.085-1.13-0.182-2.25-0.281-3.368c-0.089-1.013-0.178-2.026-0.278-3.029c-0.111-1.112-0.234-2.211-0.358-3.31    c-0.111-0.987-0.222-1.975-0.344-2.952c-0.137-1.093-0.287-2.173-0.436-3.253c-0.133-0.96-0.264-1.922-0.408-2.872    c-0.163-1.075-0.34-2.136-0.516-3.198c-0.155-0.932-0.306-1.868-0.471-2.791c-0.189-1.056-0.393-2.096-0.595-3.138    c-0.176-0.906-0.348-1.817-0.534-2.713c-0.215-1.035-0.447-2.054-0.675-3.076c-0.197-0.88-0.388-1.765-0.595-2.634    c-0.243-1.019-0.503-2.02-0.759-3.025c-0.216-0.848-0.426-1.703-0.653-2.541c-0.272-1.008-0.563-1.997-0.849-2.991    c-0.234-0.812-0.46-1.631-0.704-2.433c-0.304-1.002-0.628-1.983-0.947-2.97c-0.249-0.77-0.489-1.549-0.747-2.309    c-0.341-1.005-0.703-1.988-1.059-2.977c-0.259-0.719-0.509-1.448-0.776-2.159c-0.39-1.034-0.802-2.045-1.209-3.061    c-0.257-0.64-0.502-1.292-0.766-1.925c-0.482-1.157-0.988-2.288-1.493-3.42c-0.21-0.47-0.407-0.951-0.621-1.417    c-0.73-1.591-1.483-3.159-2.26-4.7c0-0.001,0-0.001,0-0.001c-0.029-0.057-0.06-0.115-0.089-0.173    c-0.745-1.475-1.492-2.929-2.242-4.373c-0.118-0.228-0.236-0.454-0.355-0.681c-0.8-1.534-1.602-3.055-2.407-4.554    C238.043,199.332,248.937,163.463,255.998,141.698z M215.788,240.175c0.005,0.009,0.009,0.019,0.014,0.028    c1.005,1.84,1.995,3.693,2.971,5.545c0.132,0.251,0.264,0.503,0.396,0.755c0.961,1.834,1.907,3.668,2.825,5.488v-0.001    c0.668,1.325,1.312,2.676,1.943,4.044c0.2,0.434,0.391,0.879,0.588,1.317c0.425,0.95,0.845,1.907,1.252,2.878    c0.218,0.518,0.43,1.042,0.642,1.567c0.376,0.928,0.745,1.866,1.105,2.812c0.203,0.533,0.406,1.067,0.604,1.607    c0.37,1.008,0.728,2.03,1.081,3.058c0.164,0.479,0.333,0.953,0.494,1.437c0.483,1.457,0.952,2.93,1.399,4.425    c0.017,0.056,0.035,0.109,0.052,0.165c0.464,1.557,0.906,3.138,1.332,4.737c0.131,0.49,0.253,0.99,0.38,1.484    c0.288,1.121,0.571,2.248,0.841,3.389c0.141,0.597,0.277,1.2,0.413,1.802c0.243,1.074,0.477,2.156,0.704,3.247    c0.129,0.621,0.257,1.243,0.381,1.87c0.226,1.145,0.44,2.303,0.649,3.467c0.102,0.567,0.208,1.13,0.305,1.701    c0.267,1.567,0.519,3.151,0.755,4.751c0.025,0.169,0.054,0.334,0.079,0.503c0.256,1.768,0.49,3.56,0.708,5.368    c0.068,0.566,0.127,1.142,0.192,1.712c0.143,1.261,0.28,2.527,0.405,3.807c0.067,0.69,0.128,1.385,0.19,2.08    c0.106,1.197,0.205,2.401,0.296,3.613c0.053,0.717,0.106,1.434,0.154,2.156c0.026,0.394,0.045,0.795,0.069,1.19    c-9.859-7.501-19.866-13.103-29.219-17.283c-0.536-0.976-1.077-1.94-1.619-2.901c-0.101-0.179-0.201-0.363-0.302-0.542    c-0.917-1.618-1.844-3.208-2.777-4.782c-0.269-0.454-0.539-0.904-0.809-1.354c-0.81-1.349-1.625-2.683-2.447-3.998    c-0.194-0.311-0.387-0.625-0.582-0.934c-0.873-1.384-1.754-2.744-2.64-4.09c-0.339-0.515-0.679-1.027-1.02-1.537    c-0.798-1.193-1.6-2.372-2.408-3.534c-0.321-0.462-0.643-0.92-0.966-1.377c-0.791-1.121-1.588-2.226-2.388-3.318    c-0.356-0.485-0.713-0.969-1.07-1.448c-0.93-1.246-1.865-2.479-2.807-3.686c-0.222-0.284-0.446-0.56-0.668-0.841    c-0.852-1.078-1.708-2.139-2.57-3.185c-0.311-0.378-0.622-0.755-0.935-1.129c-1.026-1.227-2.056-2.436-3.095-3.616    c-0.15-0.17-0.301-0.334-0.451-0.503c-0.958-1.08-1.921-2.137-2.89-3.176c-0.256-0.275-0.512-0.551-0.769-0.823    c-1.015-1.075-2.034-2.137-3.06-3.168c-1.674-37.871-7.301-69.482-11.944-90.022C175.841,179.856,196.397,204.685,215.788,240.175    z M152.74,386.286v0.004c-0.046-0.37-0.102-0.733-0.149-1.101c-0.173-1.354-0.356-2.707-0.549-4.058    c-0.079-0.552-0.158-1.105-0.24-1.655c-0.242-1.62-0.499-3.238-0.77-4.854c-0.037-0.219-0.07-0.44-0.108-0.658    c-3.408-19.998-9.059-39.705-16.885-58.8c-0.115-0.282-0.263-0.548-0.412-0.813c-13.101-31.65-30.227-57.26-45.219-75.94    c-10.338-12.881-20.427-23.528-29.103-31.879c21.788,7.56,52.657,20.994,85.859,44.028c5.498,3.814,10.855,8.275,16.065,13.347    c0.57,0.555,1.138,1.119,1.704,1.689c0.291,0.293,0.582,0.587,0.872,0.884c0.563,0.576,1.125,1.159,1.685,1.75    c0.275,0.291,0.55,0.585,0.825,0.879c0.579,0.621,1.156,1.247,1.731,1.883c0.235,0.26,0.469,0.524,0.703,0.787    c0.612,0.686,1.223,1.377,1.83,2.081c0.167,0.193,0.332,0.391,0.498,0.585c0.672,0.786,1.343,1.578,2.01,2.387    c0.028,0.034,0.056,0.07,0.084,0.104c3.826,4.649,7.56,9.666,11.194,15.03c0.137,0.203,0.276,0.402,0.413,0.606    c0.563,0.837,1.121,1.687,1.679,2.541c0.23,0.352,0.461,0.702,0.69,1.057c0.17,0.263,0.338,0.533,0.507,0.797    c-13.103-3.592-22.219-4.207-23.254-4.266c-0.004,0-0.017-0.001-0.021-0.001h-0.001c-1.335-0.074-2.621,0.228-3.766,0.801    c-1.227,0.613-2.288,1.541-3.028,2.735c-0.201,0.324-0.38,0.666-0.533,1.025c-1.081,2.55-0.659,5.453,1.02,7.578    c0.24,0.304,0.506,0.591,0.796,0.86c0.011,0.01,0.06,0.056,0.132,0.125c0.026,0.025,0.074,0.072,0.107,0.103    c0.064,0.061,0.128,0.123,0.218,0.21c0.056,0.054,0.134,0.132,0.199,0.197c0.097,0.096,0.193,0.19,0.311,0.308    c0.079,0.079,0.178,0.179,0.266,0.269c0.132,0.134,0.265,0.267,0.417,0.423c0.105,0.107,0.225,0.233,0.339,0.35    c0.161,0.166,0.323,0.335,0.501,0.521c0.127,0.133,0.267,0.283,0.403,0.426c0.19,0.202,0.384,0.408,0.59,0.63    c0.146,0.157,0.302,0.328,0.456,0.495c0.218,0.238,0.441,0.481,0.674,0.739c0.164,0.182,0.336,0.375,0.508,0.566    c0.241,0.27,0.487,0.547,0.741,0.836c0.184,0.21,0.374,0.428,0.565,0.648c0.262,0.302,0.529,0.613,0.803,0.933    c0.198,0.233,0.4,0.471,0.604,0.714c0.283,0.336,0.572,0.683,0.865,1.037c0.211,0.255,0.424,0.514,0.64,0.779    c0.303,0.372,0.613,0.757,0.926,1.148c0.219,0.273,0.438,0.548,0.661,0.83c0.323,0.409,0.652,0.833,0.983,1.262    c0.226,0.292,0.452,0.583,0.681,0.885c0.341,0.447,0.687,0.91,1.035,1.376c0.229,0.307,0.457,0.61,0.688,0.925    c0.362,0.492,0.729,1.003,1.097,1.515c0.226,0.314,0.449,0.622,0.677,0.944c0.386,0.546,0.778,1.114,1.169,1.681    c0.214,0.311,0.427,0.614,0.643,0.931c0.425,0.626,0.854,1.275,1.283,1.925c0.185,0.281,0.369,0.552,0.555,0.838    c0.51,0.784,1.022,1.592,1.534,2.409c0.106,0.17,0.212,0.331,0.318,0.502c1.25,2.011,2.502,4.121,3.741,6.327    c0.118,0.21,0.234,0.43,0.352,0.642c0.493,0.886,0.984,1.78,1.471,2.696c0.189,0.355,0.374,0.724,0.562,1.084    c0.412,0.79,0.824,1.581,1.23,2.392c0.215,0.43,0.426,0.873,0.639,1.309c0.372,0.761,0.745,1.523,1.11,2.302    c0.226,0.482,0.447,0.977,0.671,1.466c0.344,0.753,0.687,1.506,1.023,2.275c0.23,0.525,0.454,1.062,0.68,1.594    c0.319,0.753,0.637,1.509,0.948,2.277c0.227,0.561,0.448,1.13,0.67,1.698c0.298,0.762,0.593,1.526,0.881,2.302    c0.22,0.591,0.434,1.189,0.648,1.788c0.276,0.773,0.548,1.55,0.814,2.335c0.209,0.619,0.414,1.243,0.616,1.87    c0.254,0.787,0.504,1.581,0.747,2.38c0.195,0.642,0.386,1.287,0.574,1.937c0.232,0.805,0.457,1.617,0.677,2.433    c0.179,0.664,0.355,1.33,0.525,2.001c0.208,0.822,0.407,1.651,0.602,2.484c0.16,0.684,0.319,1.369,0.47,2.061    c0.183,0.841,0.354,1.692,0.523,2.545c0.139,0.701,0.278,1.402,0.407,2.111c0.048,0.264,0.088,0.533,0.134,0.798H152.74z     M216.395,386.291v-0.001c-0.001-0.008-0.003-0.016-0.004-0.025c-0.045-0.286-0.096-0.566-0.142-0.851    c-0.128-0.785-0.256-1.569-0.395-2.345c-0.077-0.432-0.162-0.857-0.242-1.286c-0.117-0.621-0.232-1.244-0.355-1.859    c-0.094-0.471-0.196-0.937-0.294-1.405c-0.119-0.566-0.237-1.133-0.362-1.694c-0.107-0.483-0.22-0.961-0.332-1.441    c-0.125-0.539-0.25-1.078-0.38-1.612c-0.118-0.486-0.242-0.968-0.364-1.45c-0.132-0.519-0.264-1.038-0.4-1.553    c-0.129-0.486-0.261-0.968-0.394-1.451c-0.138-0.501-0.277-1.002-0.419-1.499c-0.139-0.486-0.281-0.97-0.424-1.452    c-0.144-0.484-0.289-0.967-0.436-1.447c-0.148-0.483-0.298-0.964-0.45-1.442c-0.15-0.472-0.301-0.941-0.454-1.408    c-0.157-0.48-0.316-0.959-0.477-1.434c-0.154-0.454-0.31-0.905-0.466-1.355c-0.167-0.479-0.334-0.957-0.504-1.432    c-0.158-0.439-0.318-0.874-0.478-1.31c-0.175-0.475-0.35-0.951-0.528-1.421c-0.161-0.425-0.325-0.846-0.489-1.267    c-0.183-0.471-0.365-0.943-0.551-1.409c-0.163-0.409-0.33-0.813-0.495-1.218c-0.192-0.47-0.383-0.942-0.578-1.407    c-0.159-0.379-0.321-0.753-0.482-1.129c-0.206-0.482-0.411-0.967-0.62-1.444c-0.137-0.312-0.276-0.617-0.414-0.926    c-0.842-1.889-1.705-3.732-2.585-5.529c-0.131-0.268-0.261-0.54-0.393-0.805c-0.236-0.476-0.475-0.943-0.713-1.412    c-0.159-0.313-0.317-0.629-0.477-0.94c-0.231-0.449-0.465-0.891-0.698-1.334c-0.168-0.32-0.336-0.641-0.504-0.957    c-0.231-0.433-0.463-0.858-0.696-1.285c-0.173-0.318-0.346-0.637-0.52-0.951c-0.23-0.416-0.46-0.826-0.691-1.235    c-0.179-0.317-0.357-0.635-0.537-0.949c-0.228-0.398-0.456-0.792-0.684-1.185c-0.183-0.314-0.366-0.628-0.549-0.939    c-0.227-0.385-0.455-0.767-0.682-1.146c-0.185-0.308-0.369-0.614-0.554-0.917c-0.227-0.373-0.453-0.742-0.68-1.109    c-0.188-0.303-0.375-0.604-0.563-0.903c-0.223-0.356-0.446-0.71-0.668-1.06c-0.19-0.299-0.381-0.595-0.571-0.89    c-0.221-0.343-0.442-0.685-0.662-1.022c-0.191-0.292-0.382-0.58-0.573-0.868c-0.218-0.329-0.435-0.658-0.653-0.981    c-0.195-0.29-0.388-0.574-0.582-0.859c-0.211-0.31-0.422-0.622-0.632-0.926c-0.202-0.293-0.402-0.578-0.603-0.866    c-0.202-0.289-0.404-0.581-0.605-0.865c-0.212-0.3-0.422-0.592-0.633-0.887c-0.186-0.259-0.372-0.523-0.557-0.777    c-0.255-0.352-0.507-0.695-0.76-1.038c-0.139-0.189-0.279-0.383-0.417-0.569c-0.378-0.51-0.752-1.009-1.124-1.499    c16.69,4.671,40.806,14.742,61.297,36.217c0.127,0.134,0.255,0.266,0.382,0.4c0.522,0.552,1.041,1.117,1.558,1.684    c0.237,0.261,0.477,0.52,0.712,0.782c0.415,0.463,0.826,0.936,1.237,1.409c0.31,0.357,0.623,0.712,0.928,1.071    c0.37,0.435,0.736,0.88,1.103,1.323c0.316,0.382,0.636,0.763,0.945,1.145c0.644,0.798,1.285,1.605,1.918,2.43    c0.015,0.02,0.029,0.04,0.044,0.06c0.909,1.184,1.795,2.403,2.669,3.641c0.272,0.385,0.537,0.778,0.806,1.168    c0.633,0.921,1.258,1.855,1.872,2.805c0.272,0.42,0.544,0.839,0.812,1.265c0.703,1.115,1.392,2.25,2.069,3.402    c0.135,0.231,0.276,0.454,0.41,0.686c0.801,1.384,1.581,2.798,2.344,4.234c0.208,0.392,0.41,0.793,0.615,1.189    c0.56,1.079,1.111,2.172,1.651,3.279c0.236,0.484,0.47,0.97,0.701,1.459c0.544,1.149,1.075,2.315,1.596,3.494    c0.17,0.385,0.345,0.763,0.513,1.151c0.054,0.125,0.104,0.256,0.158,0.382H216.395z M309.818,341.414    c-0.151,0.311-0.303,0.617-0.453,0.931c-0.381,0.798-0.759,1.606-1.132,2.422c-0.144,0.315-0.285,0.637-0.428,0.954    c-0.234,0.519-0.468,1.036-0.699,1.562c-0.164,0.374-0.324,0.754-0.486,1.131c-0.206,0.479-0.413,0.956-0.615,1.441    c-0.166,0.397-0.329,0.801-0.494,1.202c-0.194,0.473-0.388,0.945-0.579,1.423c-0.165,0.414-0.326,0.833-0.489,1.25    c-0.185,0.475-0.37,0.949-0.551,1.428c-0.162,0.429-0.321,0.861-0.481,1.294c-0.176,0.476-0.351,0.952-0.523,1.433    c-0.158,0.442-0.314,0.887-0.469,1.333c-0.168,0.483-0.336,0.968-0.501,1.456c-0.151,0.448-0.3,0.898-0.448,1.35    c-0.162,0.494-0.322,0.99-0.48,1.488c-0.145,0.456-0.288,0.914-0.429,1.374c-0.155,0.503-0.306,1.009-0.457,1.516    c-0.137,0.463-0.273,0.926-0.407,1.392c-0.148,0.516-0.292,1.035-0.435,1.556c-0.128,0.466-0.256,0.932-0.381,1.402    c-0.141,0.53-0.276,1.064-0.412,1.599c-0.119,0.469-0.239,0.936-0.354,1.408c-0.134,0.548-0.261,1.101-0.39,1.653    c-0.108,0.467-0.219,0.933-0.323,1.403c-0.128,0.574-0.248,1.155-0.37,1.734c-0.096,0.455-0.194,0.908-0.286,1.367    c-0.125,0.624-0.242,1.254-0.36,1.884c-0.079,0.423-0.163,0.843-0.239,1.268c-0.139,0.776-0.267,1.559-0.394,2.343    c-0.046,0.285-0.098,0.567-0.143,0.853c-0.001,0.008-0.003,0.017-0.004,0.025h-9.157c-0.067-0.174-0.141-0.342-0.209-0.515    c-0.275-0.703-0.563-1.39-0.845-2.085c-0.469-1.158-0.94-2.314-1.429-3.449c-0.319-0.741-0.649-1.469-0.976-2.2    c-0.477-1.067-0.959-2.127-1.454-3.173c-0.349-0.737-0.704-1.465-1.062-2.191c-0.5-1.017-1.008-2.024-1.525-3.02    c-0.37-0.714-0.744-1.424-1.123-2.127c-0.532-0.988-1.076-1.961-1.625-2.928c-0.384-0.675-0.766-1.352-1.158-2.016    c-0.581-0.986-1.178-1.953-1.777-2.916c-0.38-0.61-0.754-1.227-1.141-1.828c-0.676-1.049-1.371-2.073-2.068-3.093    c-0.33-0.483-0.652-0.978-0.987-1.455c-1.044-1.484-2.107-2.94-3.196-4.358c-0.017-0.023-0.035-0.046-0.053-0.069    c0.035-0.037,0.068-0.075,0.103-0.112c0.4-0.428,0.803-0.846,1.205-1.265c0.264-0.276,0.527-0.553,0.794-0.826    c0.5-0.511,1.002-1.013,1.506-1.511c0.154-0.152,0.307-0.305,0.462-0.457c0.6-0.587,1.202-1.167,1.807-1.735    c0.021-0.02,0.042-0.039,0.063-0.059c19.317-18.13,40.98-27,56.344-31.294c-0.375,0.495-0.754,1-1.136,1.516    c-0.08,0.109-0.162,0.222-0.243,0.332c-0.31,0.42-0.621,0.844-0.935,1.277c-0.148,0.205-0.299,0.417-0.448,0.625    c-0.249,0.347-0.498,0.693-0.749,1.049c-0.169,0.239-0.34,0.486-0.51,0.729c-0.233,0.333-0.466,0.665-0.7,1.005    c-0.18,0.261-0.361,0.529-0.542,0.794c-0.227,0.333-0.454,0.666-0.682,1.006c-0.186,0.277-0.373,0.56-0.56,0.842    c-0.223,0.336-0.445,0.672-0.669,1.014c-0.19,0.291-0.381,0.586-0.572,0.882c-0.223,0.346-0.446,0.693-0.67,1.045    c-0.191,0.301-0.382,0.604-0.573,0.909c-0.221,0.353-0.443,0.708-0.664,1.067c-0.194,0.314-0.388,0.631-0.582,0.95    c-0.22,0.362-0.44,0.727-0.661,1.094c-0.194,0.323-0.388,0.648-0.581,0.976c-0.219,0.371-0.438,0.745-0.656,1.122    c-0.195,0.336-0.39,0.672-0.585,1.013c-0.216,0.377-0.43,0.758-0.645,1.141c-0.196,0.348-0.391,0.695-0.586,1.048    c-0.216,0.391-0.431,0.787-0.646,1.183c-0.19,0.35-0.381,0.699-0.57,1.053c-0.22,0.412-0.439,0.831-0.658,1.248    c-0.184,0.35-0.368,0.698-0.55,1.052c-0.224,0.435-0.446,0.877-0.669,1.318c-0.175,0.346-0.35,0.688-0.524,1.037    C310.297,340.422,310.058,340.919,309.818,341.414z M378.372,314.351c-0.148,0.264-0.295,0.53-0.41,0.811    c-7.826,19.094-13.476,38.8-16.884,58.797c-0.038,0.224-0.073,0.45-0.11,0.673c-0.27,1.611-0.527,3.224-0.768,4.838    c-0.083,0.553-0.162,1.109-0.241,1.665c-0.193,1.349-0.376,2.7-0.548,4.052c-0.047,0.369-0.103,0.732-0.149,1.103h-48.426    c0.046-0.26,0.085-0.525,0.132-0.784c0.128-0.703,0.267-1.397,0.405-2.093c0.169-0.85,0.339-1.698,0.522-2.538    c0.152-0.695,0.312-1.383,0.473-2.07c0.193-0.822,0.389-1.641,0.595-2.452c0.173-0.683,0.353-1.36,0.535-2.035    c0.215-0.797,0.435-1.589,0.662-2.374c0.193-0.668,0.39-1.333,0.592-1.993c0.236-0.773,0.477-1.54,0.723-2.301    c0.211-0.653,0.424-1.302,0.643-1.947c0.254-0.75,0.515-1.493,0.779-2.231c0.226-0.634,0.453-1.266,0.686-1.891    c0.272-0.731,0.551-1.452,0.832-2.171c0.239-0.612,0.477-1.224,0.722-1.827c0.289-0.712,0.584-1.412,0.88-2.111    c0.25-0.59,0.498-1.182,0.752-1.762c0.304-0.693,0.614-1.373,0.923-2.053c0.257-0.564,0.512-1.133,0.773-1.689    c0.319-0.68,0.645-1.344,0.97-2.011c0.26-0.534,0.518-1.075,0.782-1.601c0.337-0.672,0.678-1.326,1.019-1.983    c0.258-0.498,0.514-1.004,0.774-1.493c0.363-0.683,0.731-1.346,1.097-2.012c0.243-0.441,0.483-0.894,0.727-1.328    c0.453-0.806,0.908-1.587,1.364-2.368c0.262-0.449,0.524-0.897,0.787-1.338c0.508-0.851,1.016-1.695,1.524-2.514    c0.264-0.425,0.526-0.829,0.789-1.245c0.353-0.559,0.707-1.123,1.059-1.666c0.288-0.444,0.574-0.869,0.861-1.302    c0.325-0.491,0.651-0.988,0.974-1.465c0.294-0.434,0.584-0.849,0.875-1.271c0.312-0.451,0.624-0.907,0.933-1.344    c0.295-0.418,0.585-0.819,0.876-1.224c0.299-0.416,0.599-0.835,0.893-1.237c0.291-0.397,0.576-0.779,0.863-1.163    c0.287-0.385,0.575-0.772,0.858-1.144c0.284-0.374,0.563-0.735,0.841-1.095c0.275-0.356,0.55-0.711,0.819-1.054    c0.272-0.345,0.538-0.68,0.803-1.012c0.265-0.332,0.53-0.662,0.788-0.98c0.258-0.317,0.511-0.626,0.762-0.93    c0.25-0.303,0.497-0.601,0.739-0.89c0.244-0.291,0.484-0.576,0.72-0.854c0.234-0.275,0.463-0.543,0.689-0.804    c0.227-0.263,0.451-0.522,0.669-0.77c0.216-0.247,0.426-0.484,0.633-0.717c0.207-0.233,0.412-0.464,0.609-0.682    c0.198-0.22,0.387-0.428,0.574-0.633c0.185-0.203,0.372-0.408,0.546-0.596c0.176-0.191,0.342-0.367,0.506-0.543    c0.161-0.172,0.325-0.347,0.474-0.504c0.157-0.166,0.301-0.315,0.444-0.464c0.132-0.137,0.27-0.282,0.39-0.405    c0.13-0.133,0.242-0.247,0.357-0.364c0.109-0.111,0.227-0.231,0.323-0.328c0.1-0.101,0.181-0.18,0.266-0.265    c0.08-0.079,0.171-0.17,0.237-0.235c0.084-0.083,0.143-0.14,0.205-0.199c0.037-0.036,0.09-0.087,0.118-0.114    c0.072-0.069,0.121-0.115,0.132-0.125c2.325-2.147,3.052-5.523,1.816-8.438c-1.234-2.911-4.157-4.731-7.316-4.56    c-0.003,0-0.007,0-0.01,0c-0.002,0-0.008,0-0.01,0.001c-0.964,0.055-10.105,0.662-23.271,4.276c0.151-0.235,0.3-0.476,0.451-0.71    c0.21-0.326,0.422-0.646,0.633-0.97c0.578-0.887,1.158-1.771,1.741-2.64c0.085-0.127,0.171-0.251,0.257-0.377    c3.664-5.429,7.432-10.502,11.293-15.203c0.054-0.065,0.107-0.132,0.16-0.197c0.67-0.813,1.343-1.609,2.019-2.4    c0.163-0.191,0.326-0.385,0.49-0.575c0.617-0.716,1.238-1.419,1.86-2.117c0.226-0.254,0.452-0.508,0.678-0.76    c0.587-0.65,1.176-1.289,1.767-1.922c0.263-0.282,0.526-0.563,0.79-0.842c0.574-0.606,1.15-1.205,1.728-1.796    c0.276-0.283,0.554-0.562,0.831-0.842c0.581-0.585,1.164-1.164,1.749-1.733c5.205-5.065,10.557-9.521,16.05-13.332    c33.203-23.034,64.073-36.47,85.86-44.028c-8.677,8.351-18.766,18.998-29.103,31.879    C408.6,257.091,391.473,282.702,378.372,314.351z" data-original="#000000" class="active-path" data-old_color="#000000" fill="#092532"/>
	</g>
</g></g> </svg>
