<?xml version="1.0" encoding="iso-8859-1"?>
<!-- Generator: Adobe Illustrator 19.0.0, SVG Export Plug-In . SVG Version: 6.00 Build 0)  -->
<svg version="1.1" id="Capa_1" xmlns="http://www.w3.org/2000/svg" xmlns:xlink="http://www.w3.org/1999/xlink" x="0px" y="0px"
	 viewBox="0 0 469.699 469.699" style="enable-background:new 0 0 469.699 469.699;" xml:space="preserve">
<path style="fill:#4614A0;" d="M218.396,466.407l-182.12-66.226c-12.218-4.443-12.218-21.722,0-26.165l193.933-70.521
	c3.073-1.117,6.441-1.117,9.515,0l193.933,70.521c12.218,4.443,12.218,21.722,0,26.165l-182.12,66.226
	C240.832,470.299,229.1,470.299,218.396,466.407L218.396,466.407z"/>
<path style="fill:#5628B4;" d="M230.208,342.324L53.691,406.513l164.704,59.893c10.704,3.892,22.437,3.892,33.141,0l164.704-59.893
	l-176.517-64.189C236.65,341.207,233.281,341.207,230.208,342.324z"/>
<path style="fill:#D80E70;" d="M220.152,2.569l-192,69.818C11.29,78.518,0.066,94.543,0.066,112.485v12.782l0.233,231.947
	c0,17.942,11.224,33.966,28.086,40.098l192,69.818c9.419,3.425,19.743,3.425,29.162,0l192-69.818
	c16.861-6.131,28.086-22.156,28.086-40.098l-0.233-231.947v-12.782c0-17.942-11.224-33.966-28.086-40.098l-192-69.818
	C239.895-0.856,229.571-0.856,220.152,2.569L220.152,2.569z M256.066,50.42l150.909,54.88l-150.909,54.875V50.42z M213.399,50.42
	v109.755L62.491,105.3L213.399,50.42z M42.733,140.782l170.667,62.06l0.233,216.436L42.966,357.213L42.733,140.782z
	 M426.966,357.213l-170.667,62.065l-0.233-216.436l170.667-62.06L426.966,357.213z"/>
<path style="fill:#E4589C;" d="M224.302,213.49L224.302,213.49c5.891,0,10.666,4.776,10.666,10.667v191.996
	c0,5.891-4.776,10.667-10.667,10.667h0c-5.891,0-10.667-4.776-10.667-10.667V224.157C213.636,218.266,218.411,213.49,224.302,213.49
	z"/>
<path style="fill:#AB0058;" d="M32.299,149.49L32.299,149.49c5.891,0,10.666,4.776,10.666,10.667v191.996
	c0,5.891-4.776,10.667-10.666,10.667l0,0c-5.891,0-10.667-4.776-10.667-10.667V160.157C21.633,154.266,26.408,149.49,32.299,149.49z
	"/>
<path style="fill:#E4589C;" d="M437.632,149.49L437.632,149.49c5.891,0,10.667,4.776,10.667,10.667v191.996
	c0,5.891-4.776,10.667-10.667,10.667l0,0c-5.891,0-10.667-4.776-10.667-10.667V160.157
	C426.966,154.266,431.741,149.49,437.632,149.49z"/>
<path style="fill:#AB0058;" d="M234.966,53.487c0-5.891-4.776-10.667-10.667-10.667h0c-5.891,0-10.667,4.776-10.667,10.667
	c0,0,0,0,0,0v85.333c0,5.891,4.776,10.667,10.667,10.667s10.667-4.776,10.667-10.667"/>
<g>
</g>
<g>
</g>
<g>
</g>
<g>
</g>
<g>
</g>
<g>
</g>
<g>
</g>
<g>
</g>
<g>
</g>
<g>
</g>
<g>
</g>
<g>
</g>
<g>
</g>
<g>
</g>
<g>
</g>
</svg>
