<?xml version="1.0" encoding="iso-8859-1"?>
<!-- Generator: Adobe Illustrator 19.0.0, SVG Export Plug-In . SVG Version: 6.00 Build 0)  -->
<svg version="1.1" id="Capa_1" xmlns="http://www.w3.org/2000/svg" xmlns:xlink="http://www.w3.org/1999/xlink" x="0px" y="0px"
	 viewBox="0 0 469.334 469.334" style="enable-background:new 0 0 469.334 469.334;" xml:space="preserve">
<path style="fill:#F2EDF9;" d="M42.667,64h384v277.333h-384V64z"/>
<path style="fill:#E2D7F2;" d="M64,288L64,288c0-17.673,14.327-32,32-32h160c11.782,0,21.333-9.551,21.333-21.333v0
	c0-11.782-9.551-21.333-21.333-21.333l0,0h-85.333c-11.782,0-21.333-9.551-21.333-21.333c0,0,0,0,0,0
	c0-11.782,9.551-21.333,21.333-21.333c0,0,0,0,0,0h106.667c11.782,0,21.333-9.551,21.333-21.333c0,0,0,0,0,0
	c0-11.782-9.551-21.333-21.333-21.333l0,0H256c-11.782,0-21.333-9.551-21.333-21.333c0,0,0,0,0,0
	c0-11.782,9.551-21.333,21.333-21.333l0,0h149.333c11.782,0,21.333,9.551,21.333,21.333c0,0,0,0,0,0v170.667
	C426.667,300.898,407.564,320,384,320h0H96C78.327,320,64,305.673,64,288L64,288z"/>
<path style="fill:#A087DB;" d="M416.003,63.997L416.003,63.997c5.891,0,10.667,4.776,10.667,10.667V160
	c0,5.891-4.776,10.667-10.667,10.667l0,0c-5.891,0-10.667-4.776-10.667-10.667V74.664C405.337,68.773,410.112,63.997,416.003,63.997
	z"/>
<path style="fill:#BAA1DF;" d="M42.667,298.667h384.004c11.782,0,21.333,9.551,21.333,21.333v0.001
	c0,11.782-9.551,21.333-21.333,21.333H42.667c-11.782,0-21.333-9.551-21.333-21.333V320
	C21.334,308.218,30.885,298.667,42.667,298.667z"/>
<path style="fill:#A087DB;" d="M426.667,298.667c11.782,0,21.333,9.551,21.333,21.333v0c0,11.782-9.551,21.333-21.333,21.333
	c-11.782,0-21.333-9.551-21.333-21.333l0,0C405.333,308.218,414.885,298.667,426.667,298.667
	C426.667,298.667,426.667,298.667,426.667,298.667L426.667,298.667z"/>
<path style="fill:#E7455F;" d="M42.667,0h384c23.564,0,42.667,19.102,42.667,42.667c0,0,0,0,0,0v0
	c0,23.564-19.103,42.667-42.667,42.667c0,0,0,0,0,0h-384C19.103,85.334,0,66.231,0,42.667l0,0v0C0,19.103,19.102,0,42.667,0
	C42.667,0,42.667,0,42.667,0z"/>
<path style="fill:#5628B4;" d="M224,362.667c-29.455,0-53.333,23.878-53.333,53.333s23.878,53.333,53.333,53.333
	s53.333-23.878,53.333-53.333c0,0,0,0,0,0C277.334,386.545,253.456,362.667,224,362.667C224.001,362.667,224,362.667,224,362.667
	L224,362.667z M224,448c-17.673,0-32-14.327-32-32c0-17.673,14.327-32,32-32s32,14.327,32,32l0,0C256,433.673,241.673,448,224,448
	L224,448z"/>
<path style="fill:#7C57C5;" d="M224.003,319.997L224.003,319.997c5.891,0,10.666,4.776,10.666,10.667V384
	c0,5.891-4.776,10.667-10.667,10.667h0c-5.891,0-10.667-4.776-10.667-10.667v-53.336
	C213.337,324.773,218.112,319.997,224.003,319.997z"/>
<path style="fill:#5628B4;" d="M149.33,213.337h0.001c11.782,0,21.333,9.551,21.333,21.333v0.001
	c0,11.782-9.551,21.333-21.333,21.333h-0.001c-11.782,0-21.333-9.551-21.333-21.333v-0.001
	C127.997,222.888,137.548,213.337,149.33,213.337z"/>
<path style="fill:#F7B236;" d="M234.67,170.667h0.001c11.782,0,21.333,9.551,21.333,21.333v42.664
	c0,11.782-9.551,21.333-21.333,21.333h-0.001c-11.782,0-21.333-9.551-21.333-21.333V192
	C213.337,180.218,222.888,170.667,234.67,170.667z"/>
<path style="fill:#C7B2E4;" d="M85.33,63.997h298.664c11.782,0,21.333,9.551,21.333,21.333v0.001
	c0,11.782-9.551,21.333-21.333,21.333H85.33c-11.782,0-21.333-9.551-21.333-21.333V85.33C63.997,73.548,73.548,63.997,85.33,63.997z
	"/>
<path style="fill:#BC2A4E;" d="M465.603,59.97c-5.448-10.599-16.353-17.273-28.27-17.303H32C20.083,42.697,9.178,49.372,3.73,59.97
	c6.823,15.408,22.085,25.35,38.936,25.363h384C443.518,85.32,458.78,75.379,465.603,59.97z"/>
<path style="fill:#D80E70;" d="M320,127.997L320,127.997c11.783,0,21.334,9.551,21.334,21.333v85.334
	c0,11.782-9.551,21.333-21.333,21.333H320c-11.782,0-21.333-9.551-21.333-21.333V149.33
	C298.667,137.548,308.218,127.997,320,127.997z"/>
<path style="fill:#FAC76E;" d="M245.333,191.997L245.333,191.997c5.891,0,10.667,4.776,10.667,10.667v21.333
	c0,5.891-4.776,10.667-10.667,10.667l0,0c-5.891,0-10.667-4.776-10.667-10.667v-21.333
	C234.667,196.773,239.442,191.997,245.333,191.997z"/>
<circle style="fill:#B00934;" cx="426.667" cy="42.667" r="42.667"/>
<g>
	<path style="fill:#EC687D;" d="M42.667,21.334h85.334c11.782,0,21.333,9.551,21.333,21.333v0.001
		c0,11.782-9.551,21.333-21.333,21.333H42.667c-11.782,0-21.333-9.551-21.333-21.333v-0.001
		C21.334,30.885,30.885,21.334,42.667,21.334z"/>
	<path style="fill:#EC687D;" d="M192,21.334h149.334c11.782,0,21.333,9.551,21.333,21.333v0.001
		c0,11.782-9.551,21.333-21.333,21.333H192c-11.782,0-21.333-9.551-21.333-21.333v-0.001C170.667,30.885,180.218,21.334,192,21.334z
		"/>
</g>
<path style="fill:#E2D7F2;" d="M85.33,170.667h21.334c11.782,0,21.333,9.551,21.333,21.333v0.001
	c0,11.782-9.551,21.333-21.333,21.333H85.33c-11.782,0-21.333-9.551-21.333-21.333V192C63.997,180.218,73.548,170.667,85.33,170.667
	z"/>
<g>
	<path style="fill:#D3C3EA;" d="M32.001,298.667h85.336c5.891,0,10.667,4.776,10.667,10.667l0,0c0,5.891-4.776,10.667-10.667,10.667
		H32.001c-5.891,0-10.667-4.776-10.667-10.667l0,0C21.334,303.443,26.109,298.667,32.001,298.667z"/>
	<path style="fill:#D3C3EA;" d="M160.004,298.667H394.67c5.891,0,10.667,4.776,10.667,10.667l0,0
		c0,5.891-4.776,10.667-10.667,10.667H160.004c-5.891,0-10.667-4.776-10.667-10.667l0,0
		C149.337,303.443,154.112,298.667,160.004,298.667z"/>
</g>
<path style="fill:#E35197;" d="M330.663,149.337L330.663,149.337c5.891,0,10.667,4.776,10.667,10.667V224
	c0,5.891-4.776,10.667-10.667,10.667l0,0c-5.891,0-10.667-4.776-10.667-10.667v-63.996
	C319.997,154.113,324.772,149.337,330.663,149.337z"/>
<g>
</g>
<g>
</g>
<g>
</g>
<g>
</g>
<g>
</g>
<g>
</g>
<g>
</g>
<g>
</g>
<g>
</g>
<g>
</g>
<g>
</g>
<g>
</g>
<g>
</g>
<g>
</g>
<g>
</g>
</svg>
